<svg aria-hidden="true" style="position: absolute; width: 0; height: 0; overflow: hidden;" version="1.1" xmlns="http://www.w3.org/2000/svg" xmlns:xlink="http://www.w3.org/1999/xlink">
<defs>
<symbol id="icon-Today_pencil" viewBox="0 0 39 32">
<path fill="none" stroke="#9ebbff" style="stroke: var(--color1, #9ebbff)" stroke-linejoin="round" stroke-linecap="round" stroke-miterlimit="4" stroke-width="2.4615" d="M27.671-0.021l2.768-2.77c0.577-0.577 1.36-0.901 2.176-0.901s1.599 0.324 2.176 0.901c0.577 0.577 0.901 1.36 0.901 2.176s-0.324 1.599-0.901 2.176l-17.426 17.426c-0.868 0.867-1.937 1.504-3.113 1.854l-4.406 1.313 1.313-4.406c0.35-1.176 0.987-2.245 1.854-3.113l14.658-14.656zM27.671-0.021l4.329 4.329M29.538 15.59v7.795c0 0.979-0.389 1.919-1.081 2.611s-1.632 1.081-2.611 1.081h-17.231c-0.979 0-1.918-0.389-2.611-1.081s-1.081-1.632-1.081-2.611v-17.231c0-0.979 0.389-1.918 1.081-2.611s1.632-1.081 2.611-1.081h7.795"></path>
</symbol>
<symbol id="icon-u_angle-double-left" viewBox="0 0 32 32">
<path d="M15.28 11.053c-0.124-0.125-0.271-0.224-0.434-0.292s-0.337-0.103-0.513-0.103c-0.176 0-0.35 0.035-0.513 0.103s-0.31 0.167-0.434 0.292l-4 4c-0.125 0.124-0.224 0.271-0.292 0.434s-0.103 0.337-0.103 0.513c0 0.176 0.035 0.35 0.103 0.513s0.167 0.31 0.292 0.434l4 4c0.124 0.125 0.271 0.224 0.434 0.292s0.337 0.103 0.513 0.103c0.176 0 0.35-0.035 0.513-0.103s0.31-0.167 0.434-0.292c0.125-0.124 0.224-0.271 0.292-0.434s0.103-0.337 0.103-0.513c0-0.176-0.035-0.35-0.103-0.513s-0.167-0.31-0.292-0.434l-3.067-3.053 3.067-3.053c0.125-0.124 0.224-0.271 0.292-0.434s0.103-0.337 0.103-0.513-0.035-0.35-0.103-0.513c-0.068-0.162-0.167-0.31-0.292-0.434zM19.547 16l3.12-3.053c0.251-0.251 0.392-0.592 0.392-0.947s-0.141-0.696-0.392-0.947c-0.251-0.251-0.592-0.392-0.947-0.392s-0.696 0.141-0.947 0.392l-4 4c-0.125 0.124-0.224 0.271-0.292 0.434s-0.103 0.337-0.103 0.513c0 0.176 0.035 0.35 0.103 0.513s0.167 0.31 0.292 0.434l4 4c0.124 0.125 0.271 0.224 0.434 0.292s0.337 0.103 0.513 0.103c0.176 0 0.35-0.035 0.513-0.103s0.31-0.167 0.434-0.292c0.125-0.124 0.224-0.271 0.292-0.434s0.103-0.337 0.103-0.513c0-0.176-0.035-0.35-0.103-0.513s-0.167-0.31-0.292-0.434l-3.12-3.053z"></path>
</symbol>
<symbol id="icon-u_angle-double-right" viewBox="0 0 32 32">
<path d="M11.28 11.053c-0.251-0.258-0.594-0.406-0.954-0.411s-0.707 0.133-0.966 0.384c-0.258 0.251-0.406 0.594-0.411 0.954s0.133 0.707 0.384 0.966l3.12 3.053-3.12 3.053c-0.125 0.124-0.224 0.271-0.292 0.434s-0.103 0.337-0.103 0.513c0 0.176 0.035 0.35 0.103 0.513s0.167 0.31 0.292 0.434c0.124 0.125 0.271 0.224 0.434 0.292s0.337 0.103 0.513 0.103 0.35-0.035 0.513-0.103c0.162-0.068 0.31-0.167 0.434-0.292l4-4c0.125-0.124 0.224-0.271 0.292-0.434s0.103-0.337 0.103-0.513-0.035-0.35-0.103-0.513c-0.068-0.163-0.167-0.31-0.292-0.434l-3.947-4zM22.613 15.053l-4-4c-0.251-0.251-0.592-0.392-0.947-0.392s-0.696 0.141-0.947 0.392c-0.251 0.251-0.392 0.592-0.392 0.947s0.141 0.696 0.392 0.947l3.067 3.053-3.067 3.053c-0.125 0.124-0.224 0.271-0.292 0.434s-0.103 0.337-0.103 0.513 0.035 0.35 0.103 0.513c0.068 0.162 0.167 0.31 0.292 0.434s0.271 0.224 0.434 0.292c0.163 0.068 0.337 0.103 0.513 0.103s0.35-0.035 0.513-0.103c0.163-0.068 0.31-0.167 0.434-0.292l4-4c0.129-0.12 0.232-0.265 0.304-0.426s0.112-0.334 0.117-0.51-0.025-0.351-0.088-0.516c-0.063-0.164-0.158-0.315-0.28-0.442h-0.053z"></path>
</symbol>
<symbol id="icon-u_angle-down" viewBox="0 0 32 32">
<path d="M22.667 12.227c-0.25-0.248-0.588-0.388-0.94-0.388s-0.69 0.139-0.94 0.388l-4.787 4.72-4.72-4.72c-0.25-0.248-0.588-0.388-0.94-0.388s-0.69 0.139-0.94 0.388c-0.125 0.124-0.224 0.271-0.292 0.434s-0.103 0.337-0.103 0.513c0 0.176 0.035 0.35 0.103 0.513s0.167 0.31 0.292 0.434l5.653 5.653c0.124 0.125 0.271 0.224 0.434 0.292s0.337 0.103 0.513 0.103c0.176 0 0.35-0.035 0.513-0.103s0.31-0.167 0.434-0.292l5.72-5.653c0.125-0.124 0.224-0.271 0.292-0.434s0.103-0.337 0.103-0.513-0.035-0.35-0.103-0.513c-0.068-0.162-0.167-0.31-0.292-0.434z"></path>
</symbol>
<symbol id="icon-u_angle-left-b" viewBox="0 0 32 32">
<path d="M11.333 17.066l7.6 7.467c0.533 0.533 1.333 0.533 1.867 0s0.533-1.333 0-1.867l-6.533-6.667 6.533-6.667c0.533-0.533 0.533-1.333 0-1.867-0.267-0.267-0.533-0.4-0.933-0.4s-0.667 0.133-0.933 0.4l-7.6 7.467c-0.533 0.667-0.533 1.467 0 2.133 0-0.133 0-0.133 0 0z"></path>
</symbol>
<symbol id="icon-u_angle-right-b" viewBox="0 0 32 32">
<path d="M20.72 15.053l-7.547-7.533c-0.124-0.125-0.271-0.224-0.434-0.292s-0.337-0.103-0.513-0.103c-0.176 0-0.35 0.035-0.513 0.103s-0.31 0.167-0.434 0.292c-0.248 0.25-0.388 0.588-0.388 0.94s0.139 0.69 0.388 0.94l6.6 6.667-6.6 6.6c-0.248 0.25-0.388 0.588-0.388 0.94s0.139 0.69 0.388 0.94c0.123 0.126 0.271 0.226 0.433 0.295s0.337 0.104 0.513 0.105c0.176-0.001 0.351-0.036 0.513-0.105s0.31-0.169 0.433-0.295l7.547-7.533c0.135-0.125 0.243-0.276 0.317-0.445s0.112-0.351 0.112-0.535c0-0.184-0.038-0.366-0.112-0.535s-0.182-0.32-0.317-0.445z"></path>
</symbol>
<symbol id="icon-u_angle-up" viewBox="0 0 32 32">
<path d="M22.667 17.88l-5.72-5.653c-0.124-0.125-0.271-0.224-0.434-0.292s-0.337-0.103-0.513-0.103c-0.176 0-0.35 0.035-0.513 0.103s-0.31 0.167-0.434 0.292l-5.653 5.653c-0.125 0.124-0.224 0.271-0.292 0.434s-0.103 0.337-0.103 0.513 0.035 0.35 0.103 0.513c0.068 0.163 0.167 0.31 0.292 0.434 0.25 0.248 0.588 0.388 0.94 0.388s0.69-0.139 0.94-0.388l4.72-4.72 4.72 4.72c0.248 0.246 0.584 0.385 0.933 0.387 0.176 0.001 0.349-0.033 0.512-0.099s0.31-0.164 0.435-0.288c0.129-0.119 0.234-0.263 0.307-0.423s0.115-0.333 0.121-0.509c0.006-0.176-0.023-0.351-0.085-0.516s-0.156-0.316-0.277-0.444z"></path>
</symbol>
<symbol id="icon-u_arrow-left" viewBox="0 0 32 32">
<path d="M22.667 14.667h-10.12l4.4-4.387c0.251-0.251 0.392-0.592 0.392-0.947s-0.141-0.696-0.392-0.947c-0.251-0.251-0.592-0.392-0.947-0.392s-0.696 0.141-0.947 0.392l-6.667 6.667c-0.121 0.127-0.217 0.276-0.28 0.44-0.133 0.325-0.133 0.689 0 1.013 0.063 0.164 0.159 0.313 0.28 0.44l6.667 6.667c0.124 0.125 0.271 0.224 0.434 0.292s0.337 0.103 0.513 0.103 0.35-0.035 0.513-0.103c0.163-0.068 0.31-0.167 0.434-0.292 0.125-0.124 0.224-0.271 0.292-0.434s0.103-0.337 0.103-0.513-0.035-0.35-0.103-0.513c-0.068-0.163-0.167-0.31-0.292-0.434l-4.4-4.387h10.12c0.354 0 0.693-0.141 0.943-0.391s0.391-0.589 0.391-0.943-0.14-0.693-0.391-0.943c-0.25-0.25-0.589-0.391-0.943-0.391z"></path>
</symbol>
<symbol id="icon-u_arrow-right" viewBox="0 0 32 32">
<path d="M23.893 15.494c-0.063-0.164-0.159-0.313-0.28-0.44l-6.667-6.667c-0.124-0.124-0.272-0.223-0.434-0.29s-0.336-0.102-0.512-0.102c-0.355 0-0.696 0.141-0.947 0.392-0.124 0.124-0.223 0.272-0.29 0.434s-0.102 0.337-0.102 0.512c0 0.355 0.141 0.696 0.392 0.947l4.4 4.387h-10.12c-0.354 0-0.693 0.14-0.943 0.391s-0.391 0.589-0.391 0.943 0.14 0.693 0.391 0.943c0.25 0.25 0.589 0.391 0.943 0.391h10.12l-4.4 4.387c-0.125 0.124-0.224 0.271-0.292 0.434s-0.103 0.337-0.103 0.513c0 0.176 0.035 0.35 0.103 0.513s0.167 0.31 0.292 0.434c0.124 0.125 0.271 0.224 0.434 0.292s0.337 0.103 0.513 0.103 0.35-0.035 0.513-0.103c0.162-0.068 0.31-0.167 0.434-0.292l6.667-6.667c0.121-0.127 0.217-0.276 0.28-0.44 0.133-0.325 0.133-0.689 0-1.013z"></path>
</symbol>
<symbol id="icon-u_arrow-up-right" viewBox="0 0 32 32">
<path d="M23.893 8.827c-0.135-0.326-0.394-0.585-0.72-0.72-0.16-0.068-0.332-0.105-0.507-0.107h-13.333c-0.354 0-0.693 0.14-0.943 0.391s-0.391 0.589-0.391 0.943c0 0.354 0.14 0.693 0.391 0.943s0.589 0.391 0.943 0.391h10.12l-11.067 11.053c-0.125 0.124-0.224 0.271-0.292 0.434s-0.103 0.337-0.103 0.513 0.035 0.35 0.103 0.513c0.068 0.162 0.167 0.31 0.292 0.434 0.124 0.125 0.271 0.224 0.434 0.292s0.337 0.103 0.513 0.103c0.176 0 0.35-0.035 0.513-0.103s0.31-0.167 0.434-0.292l11.053-11.067v10.12c0 0.354 0.141 0.693 0.391 0.943s0.589 0.391 0.943 0.391c0.354 0 0.693-0.141 0.943-0.391s0.391-0.589 0.391-0.943v-13.333c-0.002-0.174-0.038-0.346-0.107-0.507z"></path>
</symbol>
<symbol id="icon-u_check" viewBox="0 0 32 32">
<path d="M24.947 9.613c-0.124-0.125-0.271-0.224-0.434-0.292s-0.337-0.103-0.513-0.103c-0.176 0-0.35 0.035-0.513 0.103s-0.31 0.167-0.434 0.292l-9.933 9.947-4.173-4.187c-0.129-0.124-0.281-0.222-0.447-0.288s-0.344-0.098-0.523-0.095c-0.179 0.003-0.355 0.041-0.52 0.113s-0.313 0.174-0.437 0.303c-0.124 0.129-0.222 0.281-0.288 0.447s-0.098 0.344-0.095 0.523c0.003 0.179 0.041 0.355 0.113 0.52s0.174 0.313 0.303 0.437l5.12 5.12c0.124 0.125 0.271 0.224 0.434 0.292s0.337 0.103 0.513 0.103 0.35-0.035 0.513-0.103c0.163-0.068 0.31-0.167 0.434-0.292l10.88-10.88c0.135-0.125 0.243-0.276 0.317-0.445s0.112-0.351 0.112-0.535c0-0.184-0.038-0.366-0.112-0.535s-0.182-0.32-0.317-0.445z"></path>
</symbol>
<symbol id="icon-u_check-circle" viewBox="0 0 32 32">
<path d="M19.627 11.72l-5.72 5.733-2.2-2.2c-0.12-0.14-0.267-0.253-0.432-0.333s-0.346-0.125-0.529-0.132c-0.184-0.007-0.367 0.024-0.538 0.091s-0.326 0.169-0.456 0.299c-0.13 0.13-0.232 0.285-0.299 0.457s-0.098 0.354-0.091 0.538c0.007 0.184 0.052 0.364 0.132 0.529s0.193 0.313 0.333 0.432l3.133 3.147c0.125 0.124 0.272 0.221 0.435 0.288s0.336 0.1 0.512 0.099c0.35-0.001 0.685-0.14 0.933-0.387l6.667-6.667c0.125-0.124 0.224-0.271 0.292-0.434s0.103-0.337 0.103-0.513-0.035-0.35-0.103-0.513c-0.068-0.162-0.167-0.31-0.292-0.434-0.25-0.248-0.588-0.388-0.94-0.388s-0.69 0.139-0.94 0.388zM16 2.667c-2.637 0-5.215 0.782-7.408 2.247s-3.902 3.547-4.911 5.984c-1.009 2.436-1.273 5.117-0.759 7.704s1.784 4.962 3.649 6.827c1.865 1.865 4.24 3.135 6.827 3.649s5.267 0.25 7.704-0.759c2.436-1.009 4.519-2.718 5.984-4.911s2.247-4.771 2.247-7.408c0-1.751-0.345-3.485-1.015-5.102s-1.652-3.088-2.89-4.326c-1.238-1.238-2.708-2.22-4.326-2.89s-3.351-1.015-5.102-1.015zM16 26.667c-2.11 0-4.172-0.626-5.926-1.798s-3.121-2.838-3.929-4.787-1.019-4.094-0.607-6.163c0.412-2.069 1.427-3.97 2.919-5.462s3.392-2.508 5.462-2.919c2.069-0.412 4.214-0.2 6.163 0.607s3.615 2.175 4.787 3.929c1.172 1.754 1.798 3.816 1.798 5.926 0 2.829-1.124 5.542-3.124 7.543s-4.714 3.124-7.543 3.124z"></path>
</symbol>
<symbol id="icon-u_colapse-alt" viewBox="0 0 32 32">
<path d="M4.952 28.941l7.72-7.733v2.12c0 0.354 0.14 0.693 0.391 0.943s0.589 0.391 0.943 0.391c0.354 0 0.693-0.14 0.943-0.391s0.391-0.589 0.391-0.943v-5.333c-0.002-0.174-0.038-0.346-0.107-0.507-0.135-0.326-0.394-0.585-0.72-0.72-0.16-0.068-0.333-0.105-0.507-0.107h-5.333c-0.354 0-0.693 0.141-0.943 0.391s-0.391 0.589-0.391 0.943c0 0.354 0.14 0.693 0.391 0.943s0.589 0.391 0.943 0.391h2.12l-7.733 7.72c-0.251 0.251-0.392 0.592-0.392 0.947s0.141 0.696 0.392 0.947c0.251 0.251 0.592 0.392 0.947 0.392s0.696-0.141 0.947-0.392z"></path>
<path d="M17.486 15.235c-0.326-0.135-0.585-0.394-0.72-0.72-0.068-0.16-0.105-0.333-0.107-0.507v-5.333c0-0.354 0.141-0.693 0.391-0.943s0.589-0.391 0.943-0.391c0.354 0 0.693 0.14 0.943 0.391s0.391 0.589 0.391 0.943v2.12l7.72-7.733c0.124-0.125 0.271-0.224 0.434-0.292s0.337-0.103 0.513-0.103 0.35 0.035 0.513 0.103c0.162 0.068 0.31 0.167 0.434 0.292 0.125 0.124 0.224 0.271 0.292 0.434s0.103 0.337 0.103 0.513c0 0.176-0.035 0.35-0.103 0.513s-0.167 0.31-0.292 0.434l-7.733 7.72h2.12c0.354 0 0.693 0.14 0.943 0.391s0.391 0.589 0.391 0.943c0 0.354-0.141 0.693-0.391 0.943s-0.589 0.391-0.943 0.391h-5.333c-0.174-0.002-0.346-0.038-0.507-0.107z"></path>
</symbol>
<symbol id="icon-u_comment-question" viewBox="0 0 32 32">
<path d="M19.693 7.827c0.306 0.174 0.669 0.22 1.008 0.127s0.629-0.315 0.805-0.62c0.146-0.257 0.372-0.458 0.645-0.572s0.575-0.135 0.86-0.058c0.285 0.076 0.537 0.245 0.716 0.48s0.275 0.522 0.273 0.818c0 0.354-0.14 0.693-0.391 0.943s-0.589 0.391-0.943 0.391-0.693 0.14-0.943 0.391-0.391 0.589-0.391 0.943 0.141 0.693 0.391 0.943c0.25 0.25 0.589 0.391 0.943 0.391 0.702-0 1.392-0.186 1.999-0.537s1.112-0.857 1.463-1.465c0.351-0.608 0.535-1.298 0.535-2s-0.185-1.392-0.537-2c-0.351-0.608-0.856-1.113-1.464-1.463s-1.298-0.536-2-0.535-1.392 0.185-2 0.536c-0.608 0.351-1.113 0.856-1.464 1.464-0.088 0.152-0.145 0.32-0.168 0.495s-0.011 0.352 0.035 0.521c0.046 0.17 0.125 0.329 0.232 0.468s0.242 0.256 0.394 0.343zM25.427 17.333c-0.35-0.045-0.704 0.050-0.984 0.265s-0.463 0.532-0.51 0.882c-0.28 2.26-1.376 4.34-3.083 5.848s-3.906 2.34-6.183 2.339h-7.453l0.867-0.867c0.248-0.25 0.388-0.588 0.388-0.94s-0.139-0.69-0.388-0.94c-1.3-1.305-2.185-2.966-2.543-4.773s-0.173-3.68 0.531-5.382c0.704-1.702 1.897-3.158 3.427-4.184s3.33-1.576 5.172-1.581c0.354 0 0.693-0.14 0.943-0.391s0.391-0.589 0.391-0.943-0.14-0.693-0.391-0.943c-0.25-0.25-0.589-0.391-0.943-0.391-2.254 0.009-4.46 0.654-6.366 1.859s-3.432 2.923-4.406 4.956c-0.974 2.033-1.356 4.299-1.101 6.539s1.135 4.363 2.54 6.126l-2.28 2.24c-0.185 0.187-0.31 0.426-0.36 0.684s-0.022 0.526 0.080 0.769c0.1 0.243 0.27 0.452 0.488 0.599s0.475 0.226 0.738 0.228h10.667c2.922 0 5.744-1.065 7.936-2.997s3.604-4.597 3.971-7.496c0.024-0.174 0.014-0.352-0.031-0.522s-0.122-0.33-0.229-0.47c-0.107-0.14-0.24-0.258-0.392-0.346s-0.321-0.146-0.495-0.169zM23.173 13.427c-0.243-0.107-0.512-0.14-0.773-0.093l-0.24 0.080-0.24 0.12-0.2 0.173c-0.12 0.123-0.215 0.268-0.28 0.427-0.079 0.166-0.115 0.349-0.107 0.533-0.004 0.178 0.028 0.355 0.093 0.52 0.069 0.16 0.169 0.305 0.293 0.427 0.125 0.124 0.272 0.221 0.435 0.288s0.336 0.1 0.512 0.099c0.354 0 0.693-0.141 0.943-0.391s0.391-0.589 0.391-0.943c0.005-0.175-0.032-0.348-0.107-0.507-0.143-0.32-0.4-0.577-0.72-0.72v-0.013z"></path>
</symbol>
<symbol id="icon-u_corner-up-left-alt" viewBox="0 0 32 32">
<path d="M22.667 12.667h-12.787l1.733-1.72c0.251-0.251 0.392-0.592 0.392-0.947s-0.141-0.696-0.392-0.947c-0.251-0.251-0.592-0.392-0.947-0.392s-0.696 0.141-0.947 0.392l-4 4c-0.121 0.127-0.217 0.276-0.28 0.44-0.133 0.325-0.133 0.689 0 1.013 0.063 0.164 0.159 0.313 0.28 0.44l4 4c0.124 0.125 0.271 0.224 0.434 0.292s0.337 0.103 0.513 0.103 0.35-0.035 0.513-0.103c0.162-0.068 0.31-0.167 0.434-0.292 0.125-0.124 0.224-0.271 0.292-0.434s0.103-0.337 0.103-0.513-0.035-0.35-0.103-0.513c-0.068-0.163-0.167-0.31-0.292-0.434l-1.733-1.72h12.787c0.354 0 0.693 0.14 0.943 0.391s0.391 0.589 0.391 0.943v5.333c0 0.354 0.141 0.693 0.391 0.943s0.589 0.391 0.943 0.391c0.354 0 0.693-0.141 0.943-0.391s0.391-0.589 0.391-0.943v-5.333c0-1.061-0.421-2.078-1.172-2.828s-1.768-1.172-2.828-1.172z"></path>
</symbol>
<symbol id="icon-u_exclamation-circle" viewBox="0 0 32 32">
<path d="M16 9.333c-0.354 0-0.693 0.14-0.943 0.391s-0.391 0.589-0.391 0.943v5.333c0 0.354 0.141 0.693 0.391 0.943s0.589 0.391 0.943 0.391c0.354 0 0.693-0.141 0.943-0.391s0.391-0.589 0.391-0.943v-5.333c0-0.354-0.141-0.693-0.391-0.943s-0.589-0.391-0.943-0.391zM17.227 20.827c-0.029-0.085-0.069-0.166-0.12-0.24l-0.16-0.2c-0.187-0.185-0.426-0.31-0.684-0.36s-0.526-0.022-0.769 0.080c-0.162 0.067-0.31 0.162-0.44 0.28-0.124 0.125-0.221 0.272-0.288 0.435s-0.1 0.336-0.099 0.512c0.002 0.174 0.038 0.346 0.107 0.507 0.060 0.165 0.155 0.316 0.28 0.44s0.275 0.22 0.44 0.28c0.16 0.071 0.332 0.107 0.507 0.107s0.347-0.036 0.507-0.107c0.165-0.060 0.316-0.155 0.44-0.28s0.22-0.275 0.28-0.44c0.068-0.16 0.105-0.332 0.107-0.507 0.007-0.089 0.007-0.178 0-0.267-0.023-0.085-0.059-0.166-0.107-0.24zM16 2.667c-2.637 0-5.215 0.782-7.408 2.247s-3.902 3.547-4.911 5.984c-1.009 2.436-1.273 5.117-0.759 7.704s1.784 4.962 3.649 6.827c1.865 1.865 4.24 3.135 6.827 3.649s5.267 0.25 7.704-0.759c2.436-1.009 4.519-2.718 5.984-4.911s2.247-4.771 2.247-7.408c0-1.751-0.345-3.485-1.015-5.102s-1.652-3.088-2.89-4.326c-1.238-1.238-2.708-2.22-4.326-2.89s-3.351-1.015-5.102-1.015zM16 26.667c-2.11 0-4.172-0.626-5.926-1.798s-3.121-2.838-3.929-4.787-1.019-4.094-0.607-6.163c0.412-2.069 1.427-3.97 2.919-5.462s3.392-2.508 5.462-2.919c2.069-0.412 4.214-0.2 6.163 0.607s3.615 2.175 4.787 3.929c1.172 1.754 1.798 3.816 1.798 5.926 0 2.829-1.124 5.542-3.124 7.543s-4.714 3.124-7.543 3.124z"></path>
</symbol>
<symbol id="icon-u_expand-alt" viewBox="0 0 32 32">
<path d="M13.053 17.053l-7.72 7.733v-2.12c0-0.354-0.14-0.693-0.391-0.943s-0.589-0.391-0.943-0.391c-0.354 0-0.693 0.141-0.943 0.391s-0.391 0.589-0.391 0.943v5.333c0.002 0.174 0.038 0.346 0.107 0.507 0.135 0.326 0.394 0.585 0.72 0.72 0.16 0.068 0.332 0.105 0.507 0.107h5.333c0.354 0 0.693-0.141 0.943-0.391s0.391-0.589 0.391-0.943c0-0.354-0.14-0.693-0.391-0.943s-0.589-0.391-0.943-0.391h-2.12l7.733-7.72c0.251-0.251 0.392-0.592 0.392-0.947s-0.141-0.696-0.392-0.947c-0.251-0.251-0.592-0.392-0.947-0.392s-0.696 0.141-0.947 0.392zM29.227 3.493c-0.135-0.326-0.394-0.585-0.72-0.72-0.16-0.068-0.332-0.105-0.507-0.107h-5.333c-0.354 0-0.693 0.14-0.943 0.391s-0.391 0.589-0.391 0.943c0 0.354 0.141 0.693 0.391 0.943s0.589 0.391 0.943 0.391h2.12l-7.733 7.72c-0.125 0.124-0.224 0.271-0.292 0.434s-0.103 0.337-0.103 0.513 0.035 0.35 0.103 0.513c0.068 0.162 0.167 0.31 0.292 0.434s0.271 0.224 0.434 0.292c0.163 0.068 0.337 0.103 0.513 0.103s0.35-0.035 0.513-0.103c0.162-0.068 0.31-0.167 0.434-0.292l7.72-7.733v2.12c0 0.354 0.141 0.693 0.391 0.943s0.589 0.391 0.943 0.391c0.354 0 0.693-0.14 0.943-0.391s0.391-0.589 0.391-0.943v-5.333c-0.002-0.174-0.038-0.346-0.107-0.507z"></path>
</symbol>
<symbol id="icon-u_hamburger-menu" viewBox="0 0 32 32">
<path d="M9.333 10.667h18.667c0.354 0 0.693-0.14 0.943-0.391s0.391-0.589 0.391-0.943c0-0.354-0.141-0.693-0.391-0.943s-0.589-0.391-0.943-0.391h-18.667c-0.354 0-0.693 0.14-0.943 0.391s-0.391 0.589-0.391 0.943c0 0.354 0.14 0.693 0.391 0.943s0.589 0.391 0.943 0.391zM28 14.667h-24c-0.354 0-0.693 0.141-0.943 0.391s-0.391 0.589-0.391 0.943c0 0.354 0.14 0.693 0.391 0.943s0.589 0.391 0.943 0.391h24c0.354 0 0.693-0.141 0.943-0.391s0.391-0.589 0.391-0.943c0-0.354-0.141-0.693-0.391-0.943s-0.589-0.391-0.943-0.391zM28 21.333h-13.333c-0.354 0-0.693 0.141-0.943 0.391s-0.391 0.589-0.391 0.943c0 0.354 0.141 0.693 0.391 0.943s0.589 0.391 0.943 0.391h13.333c0.354 0 0.693-0.141 0.943-0.391s0.391-0.589 0.391-0.943c0-0.354-0.141-0.693-0.391-0.943s-0.589-0.391-0.943-0.391z"></path>
</symbol>
<symbol id="icon-u_ikr" viewBox="0 0 32 32">
<path d="M18.567 22.898v-10.174h2.999v1.775h0.116c0.203-0.631 0.545-1.108 1.024-1.431 0.479-0.327 1.031-0.49 1.655-0.49 0.155 0 0.322 0.009 0.501 0.027s0.336 0.042 0.472 0.073v2.504c-0.145-0.040-0.346-0.075-0.603-0.106s-0.491-0.046-0.704-0.046c-0.455 0-0.861 0.091-1.22 0.271-0.353 0.177-0.634 0.424-0.842 0.742-0.203 0.318-0.305 0.685-0.305 1.1v5.756h-3.093z"></path>
<path d="M9.469 19.971l0.007-3.385h0.45l3.572-3.862h3.55l-4.799 5.113h-0.733l-2.047 2.133zM6.667 22.898v-13.565h3.093v13.565h-3.093zM13.637 22.898l-3.282-4.431 2.062-1.994 4.843 6.425h-3.623z"></path>
</symbol>
<symbol id="icon-u_user" viewBox="0 0 32 32">
<path d="M20.947 16.947c1.307-1.028 2.261-2.439 2.73-4.035s0.428-3.298-0.117-4.87-1.565-2.935-2.92-3.899c-1.355-0.965-2.977-1.483-4.64-1.483s-3.285 0.518-4.64 1.483-2.375 2.328-2.92 3.899c-0.544 1.572-0.585 3.274-0.117 4.87s1.422 3.006 2.73 4.035c-2.24 0.897-4.194 2.386-5.655 4.307s-2.372 4.202-2.639 6.6c-0.019 0.175-0.004 0.352 0.045 0.521s0.131 0.327 0.241 0.464c0.223 0.278 0.546 0.455 0.9 0.494s0.708-0.064 0.986-0.287 0.455-0.546 0.494-0.9c0.293-2.606 1.536-5.014 3.491-6.762s4.486-2.714 7.109-2.714c2.623 0 5.154 0.966 7.109 2.714s3.198 4.155 3.491 6.762c0.036 0.328 0.193 0.63 0.439 0.849s0.565 0.339 0.895 0.337h0.147c0.349-0.040 0.669-0.217 0.889-0.492s0.322-0.625 0.285-0.975c-0.267-2.405-1.184-4.692-2.652-6.616s-3.432-3.412-5.681-4.304zM16 16c-1.055 0-2.086-0.313-2.963-0.899s-1.561-1.419-1.964-2.394c-0.404-0.975-0.509-2.047-0.303-3.081s0.714-1.985 1.46-2.731c0.746-0.746 1.696-1.254 2.731-1.46s2.107-0.1 3.081 0.303 1.807 1.087 2.394 1.964c0.586 0.877 0.899 1.908 0.899 2.963 0 1.415-0.562 2.771-1.562 3.771s-2.357 1.562-3.771 1.562z"></path>
</symbol>
<symbol id="icon-u_user-check" viewBox="0 0 32 32">
<path d="M17.733 16.293c0.711-0.616 1.282-1.377 1.673-2.233s0.593-1.786 0.593-2.727c0-1.768-0.702-3.464-1.953-4.714s-2.946-1.953-4.714-1.953-3.464 0.702-4.714 1.953c-1.25 1.25-1.953 2.946-1.953 4.714 0 0.941 0.202 1.871 0.593 2.727s0.962 1.617 1.673 2.233c-1.866 0.845-3.45 2.21-4.561 3.931s-1.703 3.726-1.705 5.775c0 0.354 0.14 0.693 0.391 0.943s0.589 0.391 0.943 0.391c0.354 0 0.693-0.141 0.943-0.391s0.391-0.589 0.391-0.943c0-2.122 0.843-4.157 2.343-5.657s3.535-2.343 5.657-2.343 4.157 0.843 5.657 2.343c1.5 1.5 2.343 3.535 2.343 5.657 0 0.354 0.141 0.693 0.391 0.943s0.589 0.391 0.943 0.391c0.354 0 0.693-0.141 0.943-0.391s0.391-0.589 0.391-0.943c-0.002-2.049-0.594-4.054-1.705-5.775s-2.695-3.086-4.561-3.931zM13.333 15.333c-0.791 0-1.564-0.235-2.222-0.674s-1.171-1.064-1.473-1.795c-0.303-0.731-0.382-1.535-0.228-2.311s0.535-1.489 1.095-2.048c0.559-0.559 1.272-0.94 2.048-1.095s1.58-0.075 2.311 0.228c0.731 0.303 1.356 0.815 1.795 1.473s0.674 1.431 0.674 2.222c0 1.061-0.421 2.078-1.172 2.828s-1.768 1.172-2.828 1.172zM28.947 12.173c-0.124-0.125-0.271-0.224-0.434-0.292s-0.337-0.103-0.513-0.103-0.35 0.035-0.513 0.103c-0.162 0.068-0.31 0.167-0.434 0.292l-2.667 2.667-0.827-0.84c-0.124-0.125-0.271-0.224-0.434-0.292s-0.337-0.103-0.513-0.103-0.35 0.035-0.513 0.103c-0.162 0.068-0.31 0.167-0.434 0.292-0.248 0.25-0.388 0.588-0.388 0.94s0.139 0.69 0.388 0.94l1.787 1.787c0.25 0.248 0.588 0.388 0.94 0.388s0.69-0.139 0.94-0.388l3.56-3.56c0.135-0.121 0.243-0.268 0.319-0.432s0.118-0.342 0.123-0.523c0.005-0.181-0.027-0.361-0.094-0.529s-0.167-0.321-0.295-0.449z"></path>
</symbol>
<symbol id="icon-fi_more-vertical" viewBox="0 0 32 32">
<path d="M13.333 25.333c0-1.473 1.194-2.667 2.667-2.667s2.667 1.194 2.667 2.667c0 1.473-1.194 2.667-2.667 2.667s-2.667-1.194-2.667-2.667z"></path>
<path d="M13.333 16c0-1.473 1.194-2.667 2.667-2.667s2.667 1.194 2.667 2.667c0 1.473-1.194 2.667-2.667 2.667s-2.667-1.194-2.667-2.667z"></path>
<path d="M13.333 6.667c0-1.473 1.194-2.667 2.667-2.667s2.667 1.194 2.667 2.667c0 1.473-1.194 2.667-2.667 2.667s-2.667-1.194-2.667-2.667z"></path>
</symbol>
<symbol id="icon-fi_x" viewBox="0 0 32 32">
<path d="M24.943 7.057c0.521 0.521 0.521 1.365 0 1.886l-16 16c-0.521 0.521-1.365 0.521-1.886 0s-0.521-1.365 0-1.886l16-16c0.521-0.521 1.365-0.521 1.886 0z"></path>
<path d="M7.057 7.057c0.521-0.521 1.365-0.521 1.886 0l16 16c0.521 0.521 0.521 1.365 0 1.886s-1.365 0.521-1.886 0l-16-16c-0.521-0.521-0.521-1.365 0-1.886z"></path>
</symbol>
<symbol id="icon-u_apps" viewBox="0 0 32 32">
<path d="M13.333 17.333h-9.333c-0.354 0-0.693 0.141-0.943 0.391s-0.391 0.589-0.391 0.943v9.333c0 0.354 0.14 0.693 0.391 0.943s0.589 0.391 0.943 0.391h9.333c0.354 0 0.693-0.141 0.943-0.391s0.391-0.589 0.391-0.943v-9.333c0-0.354-0.141-0.693-0.391-0.943s-0.589-0.391-0.943-0.391zM12 26.667h-6.667v-6.667h6.667v6.667zM28 2.667h-9.333c-0.354 0-0.693 0.14-0.943 0.391s-0.391 0.589-0.391 0.943v9.333c0 0.354 0.141 0.693 0.391 0.943s0.589 0.391 0.943 0.391h9.333c0.354 0 0.693-0.141 0.943-0.391s0.391-0.589 0.391-0.943v-9.333c0-0.354-0.141-0.693-0.391-0.943s-0.589-0.391-0.943-0.391zM26.667 12h-6.667v-6.667h6.667v6.667zM28 17.333h-9.333c-0.354 0-0.693 0.141-0.943 0.391s-0.391 0.589-0.391 0.943v9.333c0 0.354 0.141 0.693 0.391 0.943s0.589 0.391 0.943 0.391h9.333c0.354 0 0.693-0.141 0.943-0.391s0.391-0.589 0.391-0.943v-9.333c0-0.354-0.141-0.693-0.391-0.943s-0.589-0.391-0.943-0.391zM26.667 26.667h-6.667v-6.667h6.667v6.667zM13.333 2.667h-9.333c-0.354 0-0.693 0.14-0.943 0.391s-0.391 0.589-0.391 0.943v9.333c0 0.354 0.14 0.693 0.391 0.943s0.589 0.391 0.943 0.391h9.333c0.354 0 0.693-0.141 0.943-0.391s0.391-0.589 0.391-0.943v-9.333c0-0.354-0.141-0.693-0.391-0.943s-0.589-0.391-0.943-0.391zM12 12h-6.667v-6.667h6.667v6.667z"></path>
</symbol>
<symbol id="icon-u_award" viewBox="0 0 32 32">
<path d="M27.827 23l-3.613-6.24c0.739-1.358 1.125-2.88 1.12-4.427 0-2.475-0.983-4.849-2.734-6.6s-4.124-2.734-6.6-2.734-4.849 0.983-6.6 2.734c-1.75 1.75-2.734 4.124-2.734 6.6-0.005 1.546 0.381 3.069 1.12 4.427l-3.613 6.24c-0.117 0.203-0.179 0.433-0.179 0.668s0.062 0.465 0.18 0.668c0.118 0.203 0.287 0.371 0.49 0.488s0.434 0.178 0.669 0.177h3.827l1.947 3.28c0.066 0.109 0.146 0.207 0.24 0.293 0.247 0.238 0.577 0.372 0.92 0.373h0.187c0.201-0.028 0.394-0.101 0.562-0.214s0.309-0.263 0.411-0.439l2.573-4.427 2.573 4.467c0.103 0.173 0.245 0.321 0.413 0.432s0.36 0.182 0.56 0.208h0.187c0.348 0.002 0.683-0.132 0.933-0.373 0.090-0.081 0.166-0.175 0.227-0.28l1.947-3.28h3.827c0.235 0.001 0.466-0.060 0.67-0.177s0.373-0.286 0.49-0.489c0.125-0.207 0.19-0.445 0.19-0.687s-0.066-0.479-0.19-0.687zM12.253 25.040l-1.187-1.987c-0.117-0.197-0.283-0.361-0.481-0.475s-0.423-0.176-0.652-0.178h-2.307l1.907-3.307c1.313 1.265 2.968 2.118 4.76 2.453l-2.040 3.493zM16 19c-1.319 0-2.607-0.391-3.704-1.124s-1.951-1.774-2.455-2.992-0.637-2.559-0.379-3.852c0.257-1.293 0.892-2.481 1.825-3.413s2.12-1.567 3.414-1.825c1.293-0.257 2.634-0.125 3.852 0.379s2.259 1.359 2.992 2.455 1.123 2.385 1.123 3.704c0 1.768-0.702 3.464-1.953 4.714s-2.946 1.953-4.714 1.953zM22.067 22.4c-0.229 0.002-0.454 0.064-0.652 0.178s-0.364 0.278-0.481 0.475l-1.187 1.987-2.027-3.533c1.786-0.342 3.435-1.194 4.747-2.453l1.907 3.307-2.307 0.040z"></path>
</symbol>
<symbol id="icon-u_boat-front" viewBox="0 0 32 32">
<path d="M14.807 12.439c0.751-0.375 1.634-0.375 2.385 0l8.091 4.045c1.722 0.861 2.586 2.826 2.057 4.677l-1.506 5.271c-0.491 1.717-2.060 2.901-3.846 2.901h-11.977c-1.786 0-3.355-1.184-3.846-2.901l-1.506-5.271c-0.529-1.851 0.336-3.816 2.057-4.677l8.091-4.046zM24.091 18.869l-8.091-4.045-8.091 4.045c-0.574 0.287-0.862 0.942-0.686 1.559l1.506 5.271c0.164 0.572 0.687 0.967 1.282 0.967h11.977c0.595 0 1.119-0.395 1.282-0.967l1.506-5.271c0.176-0.617-0.112-1.272-0.686-1.559z"></path>
<path d="M8 12c0-2.209 1.791-4 4-4h8c2.209 0 4 1.791 4 4v5.333h-2.667v-5.333c0-0.736-0.597-1.333-1.333-1.333h-8c-0.736 0-1.333 0.597-1.333 1.333v5.333h-2.667v-5.333z"></path>
<path d="M16 5.333c-1.473 0-2.667 1.194-2.667 2.667v1.333h-2.667v-1.333c0-2.946 2.388-5.333 5.333-5.333s5.333 2.388 5.333 5.333v1.333h-2.667v-1.333c0-1.473-1.194-2.667-2.667-2.667z"></path>
</symbol>
<symbol id="icon-u_building" viewBox="0 0 32 32">
<path d="M18.667 10.667h1.333c0.354 0 0.693-0.14 0.943-0.391s0.391-0.589 0.391-0.943c0-0.354-0.141-0.693-0.391-0.943s-0.589-0.391-0.943-0.391h-1.333c-0.354 0-0.693 0.14-0.943 0.391s-0.391 0.589-0.391 0.943c0 0.354 0.141 0.693 0.391 0.943s0.589 0.391 0.943 0.391zM18.667 16h1.333c0.354 0 0.693-0.141 0.943-0.391s0.391-0.589 0.391-0.943c0-0.354-0.141-0.693-0.391-0.943s-0.589-0.391-0.943-0.391h-1.333c-0.354 0-0.693 0.141-0.943 0.391s-0.391 0.589-0.391 0.943c0 0.354 0.141 0.693 0.391 0.943s0.589 0.391 0.943 0.391zM12 10.667h1.333c0.354 0 0.693-0.14 0.943-0.391s0.391-0.589 0.391-0.943c0-0.354-0.141-0.693-0.391-0.943s-0.589-0.391-0.943-0.391h-1.333c-0.354 0-0.693 0.14-0.943 0.391s-0.391 0.589-0.391 0.943c0 0.354 0.14 0.693 0.391 0.943s0.589 0.391 0.943 0.391zM12 16h1.333c0.354 0 0.693-0.141 0.943-0.391s0.391-0.589 0.391-0.943c0-0.354-0.141-0.693-0.391-0.943s-0.589-0.391-0.943-0.391h-1.333c-0.354 0-0.693 0.141-0.943 0.391s-0.391 0.589-0.391 0.943c0 0.354 0.14 0.693 0.391 0.943s0.589 0.391 0.943 0.391zM28 26.667h-1.333v-22.667c0-0.354-0.141-0.693-0.391-0.943s-0.589-0.391-0.943-0.391h-18.667c-0.354 0-0.693 0.14-0.943 0.391s-0.391 0.589-0.391 0.943v22.667h-1.333c-0.354 0-0.693 0.141-0.943 0.391s-0.391 0.589-0.391 0.943c0 0.354 0.14 0.693 0.391 0.943s0.589 0.391 0.943 0.391h24c0.354 0 0.693-0.141 0.943-0.391s0.391-0.589 0.391-0.943c0-0.354-0.141-0.693-0.391-0.943s-0.589-0.391-0.943-0.391zM17.333 26.667h-2.667v-5.333h2.667v5.333zM24 26.667h-4v-6.667c0-0.354-0.141-0.693-0.391-0.943s-0.589-0.391-0.943-0.391h-5.333c-0.354 0-0.693 0.141-0.943 0.391s-0.391 0.589-0.391 0.943v6.667h-4v-21.333h16v21.333z"></path>
</symbol>
<symbol id="icon-u_envelope-alt" viewBox="0 0 32 32">
<path d="M25.333 5.333h-18.667c-1.061 0-2.078 0.421-2.828 1.172s-1.172 1.768-1.172 2.828v13.333c0 1.061 0.421 2.078 1.172 2.828s1.768 1.172 2.828 1.172h18.667c1.061 0 2.078-0.421 2.828-1.172s1.172-1.768 1.172-2.828v-13.333c0-1.061-0.421-2.078-1.172-2.828s-1.768-1.172-2.828-1.172zM6.667 8h18.667c0.354 0 0.693 0.14 0.943 0.391s0.391 0.589 0.391 0.943l-10.667 6.507-10.667-6.507c0-0.354 0.14-0.693 0.391-0.943s0.589-0.391 0.943-0.391zM26.667 22.667c0 0.354-0.141 0.693-0.391 0.943s-0.589 0.391-0.943 0.391h-18.667c-0.354 0-0.693-0.141-0.943-0.391s-0.391-0.589-0.391-0.943v-10.293l9.973 6.093c0.203 0.117 0.433 0.179 0.667 0.179s0.464-0.062 0.667-0.179l10.027-6.093v10.293z"></path>
</symbol>
<symbol id="icon-u_file-edit-alt" viewBox="0 0 32 32">
<path d="M27.613 22.28l-3.227-3.227c-0.124-0.125-0.271-0.224-0.434-0.292s-0.337-0.103-0.513-0.103-0.35 0.035-0.513 0.103c-0.162 0.068-0.31 0.167-0.434 0.292l-4.773 4.773c-0.124 0.125-0.221 0.272-0.288 0.435s-0.1 0.336-0.099 0.512v3.227c0 0.354 0.141 0.693 0.391 0.943s0.589 0.391 0.943 0.391h3.227c0.175 0.001 0.349-0.033 0.512-0.099s0.31-0.164 0.435-0.288l4.773-4.773c0.125-0.124 0.224-0.271 0.292-0.434s0.103-0.337 0.103-0.513-0.035-0.35-0.103-0.513c-0.068-0.162-0.167-0.31-0.292-0.434zM21.333 26.667h-1.333v-1.333l3.44-3.44 1.333 1.333-3.44 3.44zM13.333 26.667h-5.333c-0.354 0-0.693-0.141-0.943-0.391s-0.391-0.589-0.391-0.943v-18.667c0-0.354 0.14-0.693 0.391-0.943s0.589-0.391 0.943-0.391h6.667v4c0 1.061 0.421 2.078 1.172 2.828s1.768 1.172 2.828 1.172h4v1.333c0 0.354 0.141 0.693 0.391 0.943s0.589 0.391 0.943 0.391c0.354 0 0.693-0.141 0.943-0.391s0.391-0.589 0.391-0.943v-2.667c0 0 0 0 0-0.080-0.014-0.123-0.041-0.243-0.080-0.36v-0.12c-0.064-0.137-0.15-0.263-0.253-0.373l-8-8c-0.11-0.104-0.236-0.189-0.373-0.253-0.040-0.006-0.080-0.006-0.12 0l-0.427-0.147h-8.080c-1.061 0-2.078 0.421-2.828 1.172s-1.172 1.768-1.172 2.828v18.667c0 1.061 0.421 2.078 1.172 2.828s1.768 1.172 2.828 1.172h5.333c0.354 0 0.693-0.141 0.943-0.391s0.391-0.589 0.391-0.943c0-0.354-0.141-0.693-0.391-0.943s-0.589-0.391-0.943-0.391zM17.333 7.213l3.453 3.453h-2.12c-0.354 0-0.693-0.14-0.943-0.391s-0.391-0.589-0.391-0.943v-2.12zM10.667 18.667h8c0.354 0 0.693-0.141 0.943-0.391s0.391-0.589 0.391-0.943c0-0.354-0.141-0.693-0.391-0.943s-0.589-0.391-0.943-0.391h-8c-0.354 0-0.693 0.141-0.943 0.391s-0.391 0.589-0.391 0.943c0 0.354 0.14 0.693 0.391 0.943s0.589 0.391 0.943 0.391zM10.667 13.333h1.333c0.354 0 0.693-0.14 0.943-0.391s0.391-0.589 0.391-0.943c0-0.354-0.14-0.693-0.391-0.943s-0.589-0.391-0.943-0.391h-1.333c-0.354 0-0.693 0.14-0.943 0.391s-0.391 0.589-0.391 0.943c0 0.354 0.14 0.693 0.391 0.943s0.589 0.391 0.943 0.391zM13.333 21.333h-2.667c-0.354 0-0.693 0.141-0.943 0.391s-0.391 0.589-0.391 0.943c0 0.354 0.14 0.693 0.391 0.943s0.589 0.391 0.943 0.391h2.667c0.354 0 0.693-0.141 0.943-0.391s0.391-0.589 0.391-0.943c0-0.354-0.141-0.693-0.391-0.943s-0.589-0.391-0.943-0.391z"></path>
</symbol>
<symbol id="icon-u_filter" viewBox="0 0 32 32">
<path d="M25.333 2.667h-18.667c-1.061 0-2.078 0.421-2.828 1.172s-1.172 1.768-1.172 2.828v1.56c-0 0.551 0.113 1.095 0.333 1.6v0.080c0.188 0.428 0.455 0.817 0.787 1.147l8.213 8.16v8.787c-0 0.227 0.057 0.45 0.166 0.648s0.268 0.365 0.46 0.485c0.212 0.131 0.457 0.201 0.707 0.2 0.209-0.001 0.414-0.051 0.6-0.147l5.333-2.667c0.22-0.111 0.405-0.28 0.534-0.49s0.198-0.451 0.199-0.697v-6.12l8.16-8.16c0.331-0.33 0.598-0.719 0.787-1.147v-0.080c0.238-0.501 0.37-1.046 0.387-1.6v-1.56c0-1.061-0.421-2.078-1.172-2.828s-1.768-1.172-2.828-1.172zM17.72 17.72c-0.124 0.125-0.221 0.272-0.288 0.435s-0.1 0.336-0.099 0.512v5.84l-2.667 1.333v-7.173c0.001-0.175-0.033-0.349-0.099-0.512s-0.164-0.31-0.288-0.435l-7.067-7.053h17.573l-7.067 7.053zM26.667 8h-21.333v-1.333c0-0.354 0.14-0.693 0.391-0.943s0.589-0.391 0.943-0.391h18.667c0.354 0 0.693 0.14 0.943 0.391s0.391 0.589 0.391 0.943v1.333z"></path>
</symbol>
<symbol id="icon-u_fishing-hook" viewBox="0 0 32 32">
<path d="M22.667 8c-0.736 0-1.333-0.597-1.333-1.333s0.597-1.333 1.333-1.333c0.736 0 1.333 0.597 1.333 1.333s-0.597 1.333-1.333 1.333zM22.667 10.667c2.209 0 4-1.791 4-4s-1.791-4-4-4c-2.209 0-4 1.791-4 4s1.791 4 4 4z"></path>
<path d="M21.333 20.667v-11.333h2.667v11.333c0 4.787-3.88 8.667-8.667 8.667s-8.667-3.88-8.667-8.667v-0.114l-0.391 0.391c-0.521 0.521-1.365 0.521-1.886 0s-0.521-1.365 0-1.886l2.667-2.667c0.381-0.381 0.955-0.495 1.453-0.289s0.823 0.693 0.823 1.232v3.333c0 3.314 2.686 6 6 6s6-2.686 6-6z"></path>
</symbol>
<symbol id="icon-u_fish-n-knife" viewBox="0 0 32 32">
<path d="M24.667 25.333c-0.608 0.81-1.576 1.333-2.667 1.333h-7.091c-0.134 0-0.242-0.109-0.242-0.242v-1.091h10zM12 22.667v3.758c0 1.607 1.302 2.909 2.909 2.909h7.091c3.314 0 6-2.686 6-6 0-0.368-0.299-0.667-0.667-0.667h-15.333z"></path>
<path d="M2.667 24c0-0.736 0.597-1.333 1.333-1.333h8c0.736 0 1.333 0.597 1.333 1.333s-0.597 1.333-1.333 1.333h-8c-0.736 0-1.333-0.597-1.333-1.333z"></path>
<path d="M4.558 5.582c0.599-0.428 1.432-0.289 1.86 0.31l3.069 4.296 0.020 0.031c0.613 0.966 1.794 2.456 3.281 3.688 1.508 1.25 3.157 2.093 4.736 2.093 1.553 0 3.193-0.884 4.712-2.206 1.491-1.297 2.68-2.858 3.305-3.842 0.395-0.622 1.219-0.806 1.84-0.411s0.806 1.219 0.411 1.84c-0.73 1.149-2.080 2.922-3.806 4.424-1.698 1.478-3.952 2.861-6.463 2.861-2.484 0-4.729-1.29-6.438-2.707-1.715-1.422-3.065-3.114-3.81-4.28l-3.027-4.238c-0.428-0.599-0.289-1.432 0.31-1.86z"></path>
<path d="M4.558 15.752c0.599 0.428 1.432 0.289 1.86-0.31l3.069-4.296 0.020-0.031c0.613-0.966 1.794-2.456 3.281-3.688 1.508-1.25 3.157-2.093 4.736-2.093 1.553 0 3.193 0.884 4.712 2.206 1.491 1.297 2.68 2.858 3.305 3.842 0.395 0.622 1.219 0.806 1.84 0.411s0.806-1.219 0.411-1.84c-0.73-1.149-2.080-2.922-3.806-4.424-1.698-1.478-3.952-2.861-6.463-2.861-2.484 0-4.729 1.29-6.438 2.707-1.715 1.422-3.065 3.114-3.81 4.28l-3.027 4.238c-0.428 0.599-0.289 1.432 0.31 1.86z"></path>
<path d="M21.333 10.667c0 0.736-0.597 1.333-1.333 1.333s-1.333-0.597-1.333-1.333 0.597-1.333 1.333-1.333c0.736 0 1.333 0.597 1.333 1.333z"></path>
</symbol>
<symbol id="icon-u_gallery-view" viewBox="0 0 32 32">
<path d="M9.333 9.333v13.333h13.333v-13.333h-13.333zM6.667 8c0-0.736 0.597-1.333 1.333-1.333h16c0.736 0 1.333 0.597 1.333 1.333v16c0 0.736-0.597 1.333-1.333 1.333h-16c-0.736 0-1.333-0.597-1.333-1.333v-16zM30.667 12v8h13.333v-8h-13.333zM-12 12h13.333v8h-13.333v-8zM28 10.667c0-0.736 0.597-1.333 1.333-1.333h16c0.736 0 1.333 0.597 1.333 1.333v10.667c0 0.736-0.597 1.333-1.333 1.333h-16c-0.736 0-1.333-0.597-1.333-1.333v-10.667zM-13.333 9.333c-0.736 0-1.333 0.597-1.333 1.333v10.667c0 0.736 0.597 1.333 1.333 1.333h16c0.736 0 1.333-0.597 1.333-1.333v-10.667c0-0.736-0.597-1.333-1.333-1.333h-16z"></path>
</symbol>
<symbol id="icon-u_heart-alt" viewBox="0 0 32 32">
<path d="M26.88 6.146c-1.416-1.416-3.292-2.277-5.289-2.426s-3.981 0.423-5.591 1.613c-1.696-1.262-3.808-1.834-5.909-1.601s-4.037 1.253-5.416 2.855c-1.379 1.602-2.1 3.668-2.018 5.781s0.963 4.116 2.463 5.605l9.933 9.933c0.124 0.125 0.271 0.224 0.434 0.292s0.337 0.103 0.513 0.103 0.35-0.035 0.513-0.103c0.162-0.068 0.31-0.167 0.434-0.292l9.933-9.933c0.777-0.776 1.393-1.698 1.814-2.713s0.637-2.102 0.637-3.201-0.216-2.186-0.637-3.2c-0.42-1.015-1.037-1.936-1.814-2.713zM25 16.093l-9 8.987-9-8.987c-0.793-0.796-1.333-1.809-1.553-2.912s-0.109-2.245 0.318-3.284 1.152-1.93 2.083-2.559c0.931-0.629 2.028-0.97 3.152-0.978 1.501 0.004 2.94 0.603 4 1.667 0.124 0.125 0.271 0.224 0.434 0.292s0.337 0.103 0.513 0.103 0.35-0.035 0.513-0.103c0.162-0.068 0.31-0.167 0.434-0.292 1.091-0.945 2.501-1.441 3.943-1.387s2.811 0.655 3.828 1.68 1.606 2.398 1.648 3.841c0.043 1.443-0.465 2.849-1.419 3.932h0.107z"></path>
</symbol>
<symbol id="icon-u_heart-filled" viewBox="0 0 32 32">
<path d="M26.88 6.146c-1.416-1.416-3.292-2.277-5.289-2.426s-3.981 0.423-5.591 1.613c-1.696-1.262-3.808-1.834-5.909-1.601s-4.037 1.253-5.416 2.855c-1.379 1.602-2.1 3.668-2.018 5.781s0.963 4.116 2.463 5.605l9.933 9.933c0.124 0.125 0.271 0.224 0.434 0.292s0.337 0.103 0.513 0.103 0.35-0.035 0.513-0.103c0.162-0.068 0.31-0.167 0.434-0.292l9.933-9.933c0.777-0.776 1.393-1.698 1.814-2.713s0.637-2.102 0.637-3.201-0.216-2.186-0.637-3.2c-0.42-1.015-1.037-1.936-1.814-2.713z"></path>
</symbol>
<symbol id="icon-u_image" viewBox="0 0 32 32">
<path d="M25.333 5.333h-18.667c-1.061 0-2.078 0.421-2.828 1.172s-1.172 1.768-1.172 2.828v13.333c0 1.061 0.421 2.078 1.172 2.828s1.768 1.172 2.828 1.172h18.667c1.061 0 2.078-0.421 2.828-1.172s1.172-1.768 1.172-2.828v-13.333c0-1.061-0.421-2.078-1.172-2.828s-1.768-1.172-2.828-1.172zM6.667 24c-0.354 0-0.693-0.141-0.943-0.391s-0.391-0.589-0.391-0.943v-3.227l4.4-4.387c0.249-0.244 0.584-0.381 0.933-0.381s0.684 0.137 0.933 0.381l8.947 8.947h-13.88zM26.667 22.667c0 0.354-0.141 0.693-0.391 0.943s-0.589 0.391-0.943 0.391h-1.027l-5.080-5.107 1.173-1.173c0.249-0.244 0.584-0.381 0.933-0.381s0.684 0.137 0.933 0.381l4.4 4.387v0.56zM26.667 18.347l-2.507-2.493c-0.76-0.73-1.773-1.138-2.827-1.138s-2.067 0.408-2.827 1.138l-1.173 1.173-3.84-3.84c-0.76-0.73-1.773-1.138-2.827-1.138s-2.067 0.408-2.827 1.138l-2.507 2.493v-6.347c0-0.354 0.14-0.693 0.391-0.943s0.589-0.391 0.943-0.391h18.667c0.354 0 0.693 0.14 0.943 0.391s0.391 0.589 0.391 0.943v9.013z"></path>
</symbol>
<symbol id="icon-u_invoice" viewBox="0 0 32 32">
<path d="M17.333 21.333h-8c-0.354 0-0.693 0.14-0.943 0.391s-0.391 0.589-0.391 0.943 0.14 0.693 0.391 0.943c0.25 0.25 0.589 0.391 0.943 0.391h8c0.354 0 0.693-0.141 0.943-0.391s0.391-0.589 0.391-0.943-0.14-0.693-0.391-0.943c-0.25-0.25-0.589-0.391-0.943-0.391zM11.999 13.333h2.667c0.354 0 0.693-0.141 0.943-0.391s0.391-0.589 0.391-0.943-0.14-0.693-0.391-0.943c-0.25-0.25-0.589-0.391-0.943-0.391h-2.667c-0.354 0-0.693 0.14-0.943 0.391s-0.391 0.589-0.391 0.943c0 0.354 0.14 0.693 0.391 0.943s0.589 0.391 0.943 0.391zM27.999 16h-4v-12c0.001-0.235-0.060-0.466-0.177-0.67s-0.286-0.373-0.489-0.49c-0.203-0.117-0.433-0.179-0.667-0.179s-0.464 0.062-0.667 0.179l-4 2.293-4-2.293c-0.203-0.117-0.433-0.179-0.667-0.179s-0.464 0.062-0.667 0.179l-4 2.293-4-2.293c-0.203-0.117-0.433-0.179-0.667-0.179s-0.464 0.062-0.667 0.179c-0.203 0.117-0.372 0.287-0.489 0.49s-0.178 0.435-0.177 0.67v21.333c0 1.061 0.421 2.078 1.172 2.828s1.768 1.172 2.828 1.172h18.667c1.061 0 2.078-0.421 2.828-1.172s1.172-1.768 1.172-2.828v-8c0-0.354-0.14-0.693-0.391-0.943s-0.589-0.391-0.943-0.391zM6.666 26.667c-0.354 0-0.693-0.141-0.943-0.391s-0.391-0.589-0.391-0.943v-19.027l2.667 1.52c0.206 0.107 0.435 0.164 0.667 0.164s0.461-0.056 0.667-0.164l4-2.293 4 2.293c0.206 0.107 0.435 0.164 0.667 0.164s0.461-0.056 0.667-0.164l2.667-1.52v19.027c0.004 0.455 0.085 0.906 0.24 1.333h-14.907zM26.666 25.333c0 0.354-0.14 0.693-0.391 0.943s-0.589 0.391-0.943 0.391-0.693-0.141-0.943-0.391c-0.25-0.25-0.391-0.589-0.391-0.943v-6.667h2.667v6.667zM17.333 16h-8c-0.354 0-0.693 0.14-0.943 0.391s-0.391 0.589-0.391 0.943 0.14 0.693 0.391 0.943c0.25 0.25 0.589 0.391 0.943 0.391h8c0.354 0 0.693-0.141 0.943-0.391s0.391-0.589 0.391-0.943-0.14-0.693-0.391-0.943c-0.25-0.25-0.589-0.391-0.943-0.391z"></path>
</symbol>
<symbol id="icon-u_lightbulb-alt" viewBox="0 0 32 32">
<path d="M22.787 3.76c-1.226-1.009-2.662-1.731-4.203-2.114s-3.148-0.417-4.704-0.1c-2.072 0.418-3.972 1.443-5.46 2.943s-2.498 3.409-2.9 5.484c-0.294 1.556-0.24 3.157 0.156 4.69s1.126 2.959 2.137 4.177c0.938 1.059 1.476 2.413 1.52 3.827v4c0 1.061 0.421 2.078 1.172 2.828s1.768 1.172 2.828 1.172h5.333c1.061 0 2.078-0.421 2.828-1.172s1.172-1.767 1.172-2.828v-3.747c0.045-1.561 0.618-3.061 1.627-4.253 1.767-2.186 2.6-4.98 2.318-7.776s-1.656-5.368-3.824-7.157v0.027zM20 26.666c0 0.354-0.141 0.693-0.391 0.943s-0.589 0.391-0.943 0.391h-5.333c-0.354 0-0.693-0.14-0.943-0.391s-0.391-0.589-0.391-0.943v-1.333h8v1.333zM22.227 17.013c-1.341 1.59-2.123 3.576-2.227 5.653h-2.667v-4c0-0.354-0.141-0.693-0.391-0.943s-0.589-0.391-0.943-0.391-0.693 0.141-0.943 0.391c-0.25 0.25-0.391 0.589-0.391 0.943v4h-2.667c-0.035-2.043-0.791-4.007-2.133-5.547-0.886-1.061-1.481-2.334-1.729-3.694s-0.138-2.761 0.317-4.066 1.241-2.47 2.281-3.382c1.040-0.911 2.298-1.537 3.651-1.818 1.163-0.24 2.366-0.217 3.519 0.066s2.23 0.819 3.15 1.57c0.92 0.751 1.662 1.697 2.171 2.77s0.773 2.246 0.772 3.434c0.010 1.826-0.617 3.599-1.773 5.013z"></path>
</symbol>
<symbol id="icon-u_multiply" viewBox="0 0 32 32">
<path d="M17.88 16l8.4-8.387c0.251-0.251 0.392-0.592 0.392-0.947s-0.141-0.696-0.392-0.947c-0.251-0.251-0.592-0.392-0.947-0.392s-0.696 0.141-0.947 0.392l-8.387 8.4-8.387-8.4c-0.251-0.251-0.592-0.392-0.947-0.392s-0.696 0.141-0.947 0.392c-0.251 0.251-0.392 0.592-0.392 0.947s0.141 0.696 0.392 0.947l8.4 8.387-8.4 8.387c-0.125 0.124-0.224 0.271-0.292 0.434s-0.103 0.337-0.103 0.513c0 0.176 0.035 0.35 0.103 0.513s0.167 0.31 0.292 0.434c0.124 0.125 0.271 0.224 0.434 0.292s0.337 0.103 0.513 0.103 0.35-0.035 0.513-0.103c0.162-0.068 0.31-0.167 0.434-0.292l8.387-8.4 8.387 8.4c0.124 0.125 0.271 0.224 0.434 0.292s0.337 0.103 0.513 0.103 0.35-0.035 0.513-0.103c0.162-0.068 0.31-0.167 0.434-0.292s0.224-0.271 0.292-0.434c0.068-0.163 0.103-0.337 0.103-0.513s-0.035-0.35-0.103-0.513c-0.068-0.163-0.167-0.31-0.292-0.434l-8.4-8.387z"></path>
</symbol>
<symbol id="icon-u_pause" viewBox="0 0 32 32">
<path d="M21.333 2.667c-1.061 0-2.078 0.421-2.828 1.172s-1.172 1.768-1.172 2.828v18.667c0 1.061 0.421 2.078 1.172 2.828s1.768 1.172 2.828 1.172c1.061 0 2.078-0.421 2.828-1.172s1.172-1.768 1.172-2.828v-18.667c0-1.061-0.421-2.078-1.172-2.828s-1.768-1.172-2.828-1.172zM22.667 25.333c0 0.354-0.141 0.693-0.391 0.943s-0.589 0.391-0.943 0.391c-0.354 0-0.693-0.141-0.943-0.391s-0.391-0.589-0.391-0.943v-18.667c0-0.354 0.141-0.693 0.391-0.943s0.589-0.391 0.943-0.391c0.354 0 0.693 0.14 0.943 0.391s0.391 0.589 0.391 0.943v18.667zM10.667 2.667c-1.061 0-2.078 0.421-2.828 1.172s-1.172 1.768-1.172 2.828v18.667c0 1.061 0.421 2.078 1.172 2.828s1.768 1.172 2.828 1.172c1.061 0 2.078-0.421 2.828-1.172s1.172-1.768 1.172-2.828v-18.667c0-1.061-0.421-2.078-1.172-2.828s-1.768-1.172-2.828-1.172zM12 25.333c0 0.354-0.14 0.693-0.391 0.943s-0.589 0.391-0.943 0.391c-0.354 0-0.693-0.141-0.943-0.391s-0.391-0.589-0.391-0.943v-18.667c0-0.354 0.14-0.693 0.391-0.943s0.589-0.391 0.943-0.391c0.354 0 0.693 0.14 0.943 0.391s0.391 0.589 0.391 0.943v18.667z"></path>
</symbol>
<symbol id="icon-u_phone-alt" viewBox="0 0 32 32">
<path d="M25.92 17.333c-0.293 0-0.6-0.093-0.893-0.16-0.594-0.131-1.178-0.305-1.747-0.52-0.619-0.225-1.299-0.213-1.909 0.033s-1.108 0.709-1.398 1.301l-0.293 0.6c-1.299-0.723-2.492-1.62-3.547-2.667-1.047-1.055-1.944-2.248-2.667-3.547l0.56-0.373c0.591-0.289 1.054-0.787 1.301-1.398s0.258-1.29 0.033-1.909c-0.212-0.57-0.385-1.154-0.52-1.747-0.067-0.293-0.12-0.6-0.16-0.907-0.162-0.939-0.654-1.79-1.387-2.398s-1.66-0.935-2.613-0.922h-4c-0.575-0.005-1.144 0.113-1.668 0.347s-0.993 0.579-1.372 1.010c-0.38 0.431-0.662 0.94-0.827 1.49s-0.211 1.13-0.132 1.699c0.71 5.586 3.261 10.776 7.25 14.75s9.188 6.507 14.776 7.197h0.507c0.983 0.001 1.933-0.359 2.667-1.013 0.422-0.377 0.759-0.84 0.989-1.357s0.347-1.077 0.345-1.643v-4c-0.016-0.926-0.354-1.818-0.954-2.523s-1.427-1.18-2.339-1.343zM26.587 25.333c-0 0.189-0.041 0.376-0.119 0.549s-0.192 0.326-0.334 0.451c-0.149 0.129-0.323 0.225-0.511 0.282s-0.387 0.075-0.582 0.051c-4.993-0.64-9.632-2.925-13.183-6.493s-5.814-8.217-6.43-13.214c-0.021-0.195-0.003-0.393 0.055-0.581s0.152-0.362 0.279-0.513c0.125-0.142 0.279-0.256 0.451-0.334s0.36-0.119 0.549-0.119h4c0.31-0.007 0.613 0.095 0.856 0.287s0.412 0.463 0.477 0.767c0.053 0.364 0.12 0.724 0.2 1.080 0.154 0.703 0.359 1.394 0.613 2.067l-1.867 0.867c-0.16 0.073-0.303 0.177-0.422 0.306s-0.212 0.28-0.273 0.445c-0.061 0.165-0.088 0.34-0.081 0.515s0.049 0.348 0.123 0.507c1.919 4.11 5.223 7.414 9.333 9.333 0.325 0.133 0.689 0.133 1.013 0 0.166-0.059 0.319-0.151 0.45-0.27s0.236-0.263 0.31-0.423l0.827-1.867c0.689 0.246 1.393 0.451 2.107 0.613 0.356 0.080 0.716 0.147 1.080 0.2 0.303 0.065 0.574 0.234 0.767 0.477s0.294 0.546 0.287 0.856l0.027 4.16z"></path>
</symbol>
<symbol id="icon-u_play" viewBox="0 0 32 32">
<path d="M24.72 12l-12.88-7.387c-0.697-0.402-1.488-0.613-2.293-0.611s-1.595 0.217-2.289 0.624c-0.695 0.406-1.27 0.989-1.666 1.69s-0.601 1.493-0.592 2.298v14.827c0 1.209 0.48 2.369 1.336 3.224s2.015 1.336 3.224 1.336c0.801-0.001 1.587-0.213 2.28-0.613l12.88-7.387c0.692-0.401 1.267-0.976 1.666-1.669s0.61-1.478 0.61-2.278-0.21-1.585-0.61-2.278c-0.399-0.693-0.974-1.268-1.666-1.669v-0.107zM23.387 17.586l-12.88 7.493c-0.289 0.164-0.615 0.25-0.947 0.25s-0.658-0.086-0.947-0.25c-0.288-0.166-0.527-0.405-0.693-0.693s-0.254-0.614-0.254-0.947v-14.88c-0-0.332 0.087-0.659 0.254-0.947s0.405-0.527 0.693-0.693c0.29-0.161 0.615-0.248 0.947-0.253 0.331 0.007 0.656 0.094 0.947 0.253l12.88 7.44c0.288 0.166 0.527 0.405 0.693 0.693s0.254 0.614 0.254 0.947c0 0.332-0.088 0.659-0.254 0.947s-0.405 0.527-0.693 0.693v-0.053z"></path>
</symbol>
<symbol id="icon-u_question-circle" viewBox="0 0 32 32">
<path d="M15.053 20.387c-0.057 0.063-0.111 0.13-0.16 0.2-0.050 0.074-0.091 0.155-0.12 0.24-0.038 0.076-0.065 0.157-0.080 0.24-0.007 0.089-0.007 0.178 0 0.267-0.005 0.175 0.032 0.348 0.107 0.507 0.060 0.165 0.155 0.316 0.28 0.44s0.275 0.22 0.44 0.28c0.16 0.071 0.332 0.107 0.507 0.107s0.347-0.036 0.507-0.107c0.165-0.060 0.316-0.155 0.44-0.28s0.22-0.275 0.28-0.44c0.059-0.162 0.086-0.334 0.080-0.507 0.001-0.175-0.033-0.349-0.099-0.512s-0.164-0.31-0.288-0.435c-0.124-0.125-0.271-0.224-0.434-0.292s-0.337-0.103-0.513-0.103-0.35 0.035-0.513 0.103c-0.162 0.068-0.31 0.167-0.434 0.292zM16 2.667c-2.637 0-5.215 0.782-7.408 2.247s-3.902 3.547-4.911 5.984c-1.009 2.436-1.273 5.117-0.759 7.704s1.784 4.962 3.649 6.827c1.865 1.865 4.24 3.135 6.827 3.649s5.267 0.25 7.704-0.759c2.436-1.009 4.519-2.718 5.984-4.911s2.247-4.771 2.247-7.408c0-1.751-0.345-3.485-1.015-5.102s-1.652-3.088-2.89-4.326c-1.238-1.238-2.708-2.22-4.326-2.89s-3.351-1.015-5.102-1.015zM16 26.667c-2.11 0-4.172-0.626-5.926-1.798s-3.121-2.838-3.929-4.787-1.019-4.094-0.607-6.163c0.412-2.069 1.427-3.97 2.919-5.462s3.392-2.508 5.462-2.919c2.069-0.412 4.214-0.2 6.163 0.607s3.615 2.175 4.787 3.929c1.172 1.754 1.798 3.816 1.798 5.926 0 2.829-1.124 5.542-3.124 7.543s-4.714 3.124-7.543 3.124zM16 9.333c-0.703-0-1.393 0.184-2.001 0.535s-1.114 0.856-1.465 1.465c-0.096 0.152-0.161 0.321-0.19 0.499s-0.022 0.359 0.021 0.534c0.043 0.175 0.12 0.339 0.228 0.483s0.244 0.264 0.399 0.354c0.156 0.090 0.328 0.148 0.506 0.169s0.36 0.007 0.532-0.043c0.173-0.050 0.334-0.135 0.473-0.248s0.254-0.255 0.337-0.414c0.117-0.203 0.287-0.372 0.49-0.489s0.435-0.178 0.67-0.177c0.354 0 0.693 0.14 0.943 0.391s0.391 0.589 0.391 0.943c0 0.354-0.141 0.693-0.391 0.943s-0.589 0.391-0.943 0.391c-0.354 0-0.693 0.141-0.943 0.391s-0.391 0.589-0.391 0.943v1.333c0 0.354 0.141 0.693 0.391 0.943s0.589 0.391 0.943 0.391c0.354 0 0.693-0.141 0.943-0.391s0.391-0.589 0.391-0.943v-0.24c0.882-0.32 1.623-0.94 2.094-1.751s0.642-1.762 0.483-2.687-0.638-1.764-1.353-2.371c-0.715-0.607-1.621-0.944-2.559-0.951z"></path>
</symbol>
<symbol id="icon-u_search-alt" viewBox="0 0 32 32">
<path d="M28.093 22.44l-2.76-2.827c-0.594-0.564-1.343-0.938-2.15-1.074s-1.638-0.026-2.383 0.314l-1.2-1.2c1.414-1.889 2.060-4.244 1.807-6.591s-1.384-4.51-3.168-6.056c-1.784-1.545-4.087-2.358-6.445-2.273s-4.598 1.059-6.266 2.728-2.643 3.908-2.728 6.266c-0.084 2.358 0.728 4.661 2.273 6.445s3.709 2.916 6.056 3.168c2.346 0.253 4.701-0.393 6.591-1.807l1.187 1.187c-0.38 0.746-0.516 1.593-0.389 2.42s0.51 1.595 1.096 2.193l2.827 2.827c0.75 0.749 1.767 1.17 2.827 1.17s2.077-0.421 2.827-1.17c0.381-0.373 0.684-0.817 0.89-1.309s0.313-1.019 0.313-1.551-0.106-1.060-0.313-1.551c-0.207-0.491-0.509-0.936-0.89-1.309zM16.787 16.787c-0.933 0.931-2.121 1.564-3.414 1.82s-2.632 0.123-3.849-0.382-2.257-1.36-2.989-2.456c-0.732-1.096-1.122-2.384-1.122-3.702s0.391-2.606 1.122-3.702 1.772-1.95 2.989-2.456c1.217-0.505 2.557-0.638 3.849-0.382s2.481 0.889 3.414 1.82c0.621 0.619 1.113 1.355 1.449 2.165s0.509 1.678 0.509 2.555-0.173 1.745-0.509 2.555c-0.336 0.81-0.829 1.546-1.449 2.165zM26.213 26.214c-0.124 0.125-0.271 0.224-0.434 0.292s-0.337 0.103-0.513 0.103-0.35-0.035-0.513-0.103c-0.162-0.068-0.31-0.167-0.434-0.292l-2.827-2.827c-0.125-0.124-0.224-0.271-0.292-0.434s-0.103-0.337-0.103-0.513 0.035-0.35 0.103-0.513c0.068-0.163 0.167-0.31 0.292-0.434s0.271-0.224 0.434-0.292c0.163-0.068 0.337-0.103 0.513-0.103s0.35 0.035 0.513 0.103c0.162 0.068 0.31 0.167 0.434 0.292l2.827 2.827c0.125 0.124 0.224 0.271 0.292 0.434s0.103 0.337 0.103 0.513-0.035 0.35-0.103 0.513c-0.068 0.162-0.167 0.31-0.292 0.434z"></path>
</symbol>
<symbol id="icon-u_share-alt" viewBox="0 0 32 32">
<path d="M24 18.667c-0.788 0.005-1.565 0.185-2.275 0.526s-1.336 0.835-1.832 1.447l-6.8-3.133c0.32-0.979 0.32-2.034 0-3.013l6.8-3.133c0.802 0.968 1.921 1.621 3.158 1.845s2.513 0.003 3.604-0.623c1.090-0.626 1.925-1.617 2.355-2.798s0.431-2.476-0-3.657c-0.431-1.181-1.265-2.172-2.356-2.797s-2.367-0.846-3.604-0.622c-1.237 0.224-2.355 0.878-3.157 1.846s-1.236 2.188-1.226 3.445c0.004 0.318 0.035 0.634 0.093 0.947l-7.040 3.24c-0.751-0.734-1.701-1.23-2.732-1.426s-2.097-0.084-3.065 0.324c-0.968 0.407-1.793 1.091-2.374 1.965s-0.891 1.901-0.891 2.951 0.31 2.076 0.891 2.951c0.581 0.874 1.407 1.558 2.374 1.965s2.034 0.52 3.065 0.324 1.982-0.692 2.732-1.426l7.040 3.24c-0.058 0.312-0.089 0.629-0.093 0.947 0 1.055 0.313 2.086 0.899 2.963s1.419 1.561 2.393 1.964c0.975 0.404 2.047 0.509 3.081 0.304s1.985-0.714 2.731-1.46c0.746-0.746 1.254-1.696 1.46-2.731s0.1-2.107-0.304-3.081c-0.404-0.975-1.087-1.807-1.964-2.394s-1.908-0.899-2.963-0.899zM24 5.333c0.527 0 1.043 0.156 1.482 0.449s0.78 0.71 0.982 1.197c0.202 0.487 0.255 1.023 0.152 1.541s-0.357 0.992-0.73 1.365c-0.373 0.373-0.848 0.627-1.365 0.73s-1.053 0.050-1.541-0.152c-0.487-0.202-0.904-0.544-1.197-0.982s-0.449-0.954-0.449-1.482c0-0.707 0.281-1.386 0.781-1.886s1.178-0.781 1.886-0.781zM8 18.667c-0.527 0-1.043-0.156-1.482-0.449s-0.78-0.71-0.982-1.197c-0.202-0.487-0.255-1.023-0.152-1.541s0.357-0.992 0.73-1.365 0.848-0.627 1.365-0.73c0.517-0.103 1.053-0.050 1.541 0.152s0.904 0.544 1.197 0.982 0.449 0.954 0.449 1.481c0 0.707-0.281 1.386-0.781 1.886s-1.178 0.781-1.886 0.781zM24 26.667c-0.527 0-1.043-0.156-1.481-0.449s-0.78-0.71-0.982-1.197c-0.202-0.487-0.255-1.023-0.152-1.541s0.357-0.992 0.73-1.365 0.848-0.627 1.365-0.73c0.517-0.103 1.053-0.050 1.541 0.152s0.904 0.544 1.197 0.982c0.293 0.439 0.449 0.954 0.449 1.481 0 0.707-0.281 1.386-0.781 1.886s-1.178 0.781-1.886 0.781z"></path>
</symbol>
<symbol id="icon-u_star" viewBox="0 0 32 32">
<path d="M29.333 12.894c-0.084-0.244-0.237-0.458-0.441-0.617s-0.449-0.255-0.706-0.277l-7.587-1.107-3.4-6.893c-0.109-0.225-0.28-0.416-0.492-0.549s-0.458-0.204-0.708-0.204c-0.25 0-0.496 0.071-0.708 0.204s-0.383 0.323-0.492 0.549l-3.4 6.88-7.587 1.12c-0.247 0.035-0.479 0.139-0.67 0.299s-0.333 0.371-0.41 0.608c-0.071 0.232-0.077 0.478-0.018 0.713s0.18 0.449 0.352 0.62l5.507 5.333-1.333 7.573c-0.048 0.25-0.023 0.508 0.072 0.745s0.255 0.441 0.462 0.589c0.202 0.144 0.439 0.229 0.687 0.246s0.494-0.036 0.713-0.152l6.827-3.56 6.8 3.573c0.187 0.106 0.399 0.161 0.613 0.16 0.282 0.001 0.558-0.088 0.787-0.253 0.207-0.148 0.367-0.352 0.461-0.589s0.119-0.495 0.072-0.745l-1.333-7.573 5.507-5.333c0.193-0.163 0.335-0.377 0.41-0.618s0.081-0.498 0.016-0.742zM21.133 18.227c-0.156 0.151-0.273 0.339-0.341 0.545s-0.083 0.427-0.046 0.641l0.96 5.587-5.013-2.667c-0.193-0.103-0.408-0.156-0.627-0.156s-0.434 0.054-0.627 0.156l-5.013 2.667 0.96-5.587c0.037-0.214 0.021-0.434-0.046-0.641s-0.184-0.394-0.341-0.545l-4-4 5.613-0.813c0.216-0.030 0.421-0.113 0.598-0.24s0.319-0.297 0.415-0.493l2.373-5.080 2.507 5.093c0.096 0.196 0.239 0.365 0.415 0.493s0.382 0.21 0.598 0.24l5.613 0.813-4 3.987z"></path>
</symbol>
<symbol id="icon-u_star-filled" viewBox="0 0 32 32">
<path d="M29.333 12.894c-0.084-0.244-0.237-0.458-0.441-0.617s-0.449-0.255-0.706-0.277l-7.587-1.107-3.4-6.893c-0.109-0.225-0.28-0.416-0.492-0.549s-0.458-0.204-0.708-0.204c-0.251 0-0.496 0.071-0.708 0.204s-0.383 0.323-0.492 0.549l-3.4 6.88-7.587 1.12c-0.247 0.035-0.479 0.139-0.67 0.299s-0.333 0.371-0.41 0.608c-0.071 0.232-0.077 0.478-0.018 0.713s0.18 0.449 0.352 0.62l5.507 5.333-1.333 7.573c-0.048 0.25-0.023 0.508 0.072 0.745s0.255 0.441 0.462 0.589c0.202 0.144 0.439 0.229 0.687 0.246s0.494-0.036 0.713-0.152l6.827-3.56 6.8 3.573c0.187 0.106 0.398 0.161 0.613 0.16 0.282 0.001 0.558-0.088 0.787-0.253 0.207-0.148 0.367-0.352 0.461-0.589s0.119-0.495 0.072-0.745l-1.333-7.573 5.507-5.333c0.193-0.163 0.335-0.377 0.41-0.618s0.081-0.498 0.016-0.742z"></path>
</symbol>
<symbol id="icon-u_user-circle" viewBox="0 0 32 32">
<path d="M16 2.667c-2.586 0.005-5.115 0.762-7.278 2.178s-3.868 3.432-4.907 5.8c-1.039 2.368-1.366 4.988-0.943 7.539s1.58 4.924 3.328 6.83c1.249 1.353 2.764 2.433 4.451 3.172s3.508 1.12 5.349 1.12c1.841 0 3.663-0.381 5.349-1.12s3.202-1.819 4.451-3.172c1.748-1.906 2.904-4.279 3.328-6.83s0.096-5.17-0.943-7.539c-1.039-2.368-2.744-4.383-4.907-5.8s-4.692-2.173-7.278-2.178zM16 26.667c-2.762-0.004-5.415-1.080-7.4-3 0.603-1.467 1.628-2.722 2.946-3.605s2.868-1.355 4.454-1.355c1.586 0 3.137 0.472 4.454 1.355s2.343 2.138 2.946 3.605c-1.985 1.92-4.638 2.996-7.4 3zM13.333 13.333c0-0.527 0.156-1.043 0.449-1.482s0.709-0.78 1.197-0.982c0.487-0.202 1.023-0.255 1.541-0.152s0.992 0.357 1.365 0.73 0.627 0.848 0.73 1.365c0.103 0.517 0.050 1.053-0.152 1.541s-0.544 0.904-0.982 1.197c-0.439 0.293-0.954 0.449-1.481 0.449-0.707 0-1.385-0.281-1.886-0.781s-0.781-1.178-0.781-1.886zM25.213 21.333c-1.191-2.038-3.025-3.623-5.213-4.507 0.679-0.77 1.121-1.719 1.274-2.734s0.009-2.052-0.413-2.988c-0.422-0.935-1.106-1.729-1.968-2.286s-1.867-0.853-2.893-0.853c-1.026 0-2.031 0.296-2.893 0.853s-1.546 1.351-1.968 2.286c-0.422 0.935-0.566 1.973-0.413 2.988s0.595 1.964 1.274 2.734c-2.189 0.884-4.022 2.469-5.213 4.507-0.949-1.617-1.451-3.458-1.453-5.333 0-2.829 1.124-5.542 3.124-7.542s4.713-3.124 7.542-3.124c2.829 0 5.542 1.124 7.543 3.124s3.124 4.713 3.124 7.542c-0.002 1.875-0.504 3.716-1.453 5.333z"></path>
</symbol>
<symbol id="icon-Facebook---Negative" viewBox="0 0 32 32">
<path d="M32 16c0-8.837-7.163-16-16-16s-16 7.163-16 16c0 7.986 5.851 14.605 13.5 15.806v-11.181h-4.063v-4.625h4.063v-3.525c0-4.010 2.389-6.225 6.043-6.225 1.75 0 3.582 0.313 3.582 0.313v3.938h-2.018c-1.987 0-2.607 1.233-2.607 2.5v3h4.437l-0.709 4.625h-3.728v11.181c7.649-1.2 13.5-7.82 13.5-15.806z"></path>
</symbol>
<symbol id="icon-Instagram---Negative" viewBox="0 0 32 32">
<path d="M16 2.881c4.275 0 4.781 0.019 6.463 0.094 1.563 0.069 2.406 0.331 2.969 0.55 0.744 0.288 1.281 0.638 1.838 1.194 0.562 0.563 0.906 1.094 1.194 1.838 0.219 0.563 0.481 1.412 0.55 2.969 0.075 1.688 0.094 2.194 0.094 6.462 0 4.275-0.019 4.781-0.094 6.463-0.069 1.563-0.331 2.406-0.55 2.969-0.287 0.744-0.638 1.281-1.194 1.837-0.563 0.563-1.094 0.906-1.838 1.194-0.562 0.219-1.412 0.481-2.969 0.55-1.687 0.075-2.194 0.094-6.463 0.094-4.275 0-4.781-0.019-6.463-0.094-1.563-0.069-2.406-0.331-2.969-0.55-0.744-0.287-1.281-0.637-1.838-1.194-0.563-0.563-0.906-1.094-1.194-1.837-0.219-0.563-0.481-1.413-0.55-2.969-0.075-1.687-0.094-2.194-0.094-6.463 0-4.275 0.019-4.781 0.094-6.462 0.069-1.563 0.331-2.406 0.55-2.969 0.288-0.744 0.638-1.281 1.194-1.838 0.563-0.563 1.094-0.906 1.838-1.194 0.563-0.219 1.412-0.481 2.969-0.55 1.681-0.075 2.188-0.094 6.463-0.094zM16 0c-4.344 0-4.887 0.019-6.594 0.094-1.7 0.075-2.869 0.35-3.881 0.744-1.056 0.412-1.95 0.956-2.837 1.85-0.894 0.888-1.438 1.781-1.85 2.831-0.394 1.019-0.669 2.181-0.744 3.881-0.075 1.713-0.094 2.256-0.094 6.6s0.019 4.887 0.094 6.594c0.075 1.7 0.35 2.869 0.744 3.881 0.413 1.056 0.956 1.95 1.85 2.837 0.887 0.887 1.781 1.437 2.831 1.844 1.019 0.394 2.181 0.669 3.881 0.744 1.706 0.075 2.25 0.094 6.594 0.094s4.887-0.019 6.594-0.094c1.7-0.075 2.869-0.35 3.881-0.744 1.050-0.406 1.944-0.956 2.831-1.844s1.437-1.781 1.844-2.831c0.394-1.019 0.669-2.181 0.744-3.881 0.075-1.706 0.094-2.25 0.094-6.594s-0.019-4.888-0.094-6.594c-0.075-1.7-0.35-2.869-0.744-3.881-0.394-1.063-0.937-1.956-1.831-2.844-0.887-0.887-1.781-1.438-2.831-1.844-1.019-0.394-2.181-0.669-3.881-0.744-1.713-0.081-2.256-0.1-6.6-0.1z"></path>
<path d="M16 7.781c-4.537 0-8.219 3.681-8.219 8.219s3.681 8.219 8.219 8.219c4.537 0 8.219-3.681 8.219-8.219s-3.681-8.219-8.219-8.219zM16 21.331c-2.944 0-5.331-2.387-5.331-5.331s2.387-5.331 5.331-5.331c2.944 0 5.331 2.387 5.331 5.331s-2.387 5.331-5.331 5.331z"></path>
<path d="M26.463 7.456c0 1.063-0.863 1.919-1.919 1.919-1.063 0-1.919-0.863-1.919-1.919 0-1.063 0.862-1.919 1.919-1.919s1.919 0.862 1.919 1.919z"></path>
</symbol>
<symbol id="icon-Telegram---Negative" viewBox="0 0 32 32">
<path d="M32 16c0 8.837-7.163 16-16 16s-16-7.163-16-16c0-8.837 7.163-16 16-16s16 7.163 16 16zM16.573 11.812c-1.556 0.647-4.666 1.987-9.331 4.019-0.757 0.301-1.154 0.596-1.19 0.884-0.061 0.487 0.549 0.679 1.379 0.94 0.113 0.036 0.23 0.072 0.35 0.111 0.817 0.266 1.916 0.576 2.487 0.589 0.518 0.011 1.097-0.202 1.735-0.641 4.358-2.942 6.608-4.429 6.749-4.461 0.1-0.023 0.238-0.051 0.331 0.032s0.084 0.241 0.074 0.283c-0.060 0.257-2.454 2.483-3.693 3.634-0.386 0.359-0.66 0.614-0.716 0.672-0.125 0.13-0.253 0.254-0.376 0.372-0.759 0.732-1.328 1.28 0.031 2.176 0.653 0.431 1.176 0.787 1.698 1.142 0.57 0.388 1.138 0.775 1.873 1.257 0.187 0.123 0.366 0.25 0.54 0.374 0.663 0.473 1.258 0.897 1.994 0.829 0.427-0.039 0.869-0.441 1.093-1.64 0.53-2.834 1.572-8.973 1.813-11.503 0.021-0.222-0.005-0.505-0.027-0.63s-0.066-0.302-0.228-0.433c-0.192-0.156-0.488-0.188-0.62-0.186-0.602 0.011-1.525 0.332-5.969 2.18z"></path>
</symbol>
<symbol id="icon-u_search" viewBox="0 0 32 32">
<path d="M28.947 27.053l-4.947-4.907c1.92-2.394 2.85-5.433 2.598-8.492s-1.665-5.905-3.951-7.953c-2.285-2.048-5.269-3.143-8.337-3.059s-5.987 1.34-8.157 3.51-3.426 5.089-3.51 8.157c-0.084 3.068 1.011 6.051 3.059 8.337s4.894 3.699 7.953 3.951 6.097-0.678 8.492-2.598l4.907 4.907c0.124 0.125 0.271 0.224 0.434 0.292s0.337 0.103 0.513 0.103 0.35-0.035 0.513-0.103c0.162-0.068 0.31-0.167 0.434-0.292 0.24-0.249 0.375-0.581 0.375-0.927s-0.134-0.678-0.375-0.927zM14.667 24c-1.846 0-3.65-0.547-5.185-1.573s-2.731-2.483-3.438-4.189c-0.706-1.705-0.891-3.582-0.531-5.393s1.249-3.474 2.554-4.779 2.968-2.194 4.779-2.554c1.81-0.36 3.687-0.175 5.393 0.531s3.163 1.903 4.189 3.438c1.026 1.535 1.573 3.339 1.573 5.185 0 2.475-0.983 4.849-2.734 6.6s-4.124 2.734-6.6 2.734z"></path>
</symbol>
<symbol id="icon-X" viewBox="0 0 32 32">
<path d="M25.282 1.333h4.905l-10.77 12.448 12.583 16.886h-9.874l-7.731-10.261-8.85 10.261h-4.905l11.41-13.314-12.049-16.020h10.119l6.984 9.374 8.179-9.374zM23.565 27.744h2.719l-17.594-23.597h-2.922l17.797 23.597z"></path>
</symbol>
<symbol id="icon-burger" viewBox="0 0 32 32">
<path d="M2.667 7.993c0-0.733 0.595-1.327 1.327-1.327h10.68c0.352 0 0.689 0.14 0.938 0.389s0.389 0.586 0.389 0.938c0 0.352-0.14 0.689-0.389 0.938s-0.586 0.389-0.938 0.389h-10.68c-0.352 0-0.689-0.14-0.938-0.389s-0.389-0.586-0.389-0.938zM2.667 16c0-0.733 0.595-1.327 1.327-1.327h24.013c0.352 0 0.689 0.14 0.938 0.389s0.389 0.586 0.389 0.938c0 0.352-0.14 0.689-0.389 0.938s-0.586 0.389-0.938 0.389h-24.013c-0.352 0-0.689-0.14-0.938-0.389s-0.389-0.586-0.389-0.938zM3.993 22.68c-0.352 0-0.689 0.14-0.938 0.389s-0.389 0.586-0.389 0.938c0 0.352 0.14 0.689 0.389 0.938s0.586 0.389 0.938 0.389h16.013c0.352 0 0.689-0.14 0.938-0.389s0.389-0.586 0.389-0.938c0-0.352-0.14-0.689-0.389-0.938s-0.586-0.389-0.938-0.389h-16.013z"></path>
</symbol>
<symbol id="icon-Frame-52" viewBox="0 0 32 32">
<path d="M19.52 4.64c0.24 0 0.48 0 0.96 0v3.6c-0.24 0-0.72 0-1.2 0s-0.96 0-1.2 0.24c-0.24 0.24-0.24 0.48-0.24 1.040 0 0.48 0 0.8 0 1.28h2.64v3.040h-2.64v13.2h-4.080v-13.28h-2.16v-3.040h2.16v-1.040c0-1.76 0.24-3.040 0.72-3.6 0.72-1.040 2.16-1.52 4.32-1.52 0.24 0.080 0.48 0.080 0.72 0.080z"></path>
</symbol>
<symbol id="icon-heart" viewBox="0 0 32 32">
<path stroke-linejoin="round" stroke-linecap="round" stroke-miterlimit="4" stroke-width="2.6667" d="M27.787 6.147c-0.681-0.681-1.49-1.222-2.379-1.591s-1.844-0.559-2.807-0.559-1.917 0.19-2.807 0.559c-0.89 0.369-1.699 0.909-2.38 1.591l-1.413 1.413-1.413-1.413c-1.376-1.376-3.241-2.148-5.187-2.148s-3.811 0.773-5.187 2.148c-1.376 1.376-2.148 3.241-2.148 5.187s0.773 3.811 2.148 5.187l11.787 11.787 11.787-11.787c0.681-0.681 1.222-1.49 1.591-2.38s0.559-1.844 0.559-2.807-0.19-1.917-0.559-2.807c-0.369-0.89-0.909-1.699-1.591-2.38v0z"></path>
</symbol>
<symbol id="icon-calendar" viewBox="0 0 32 32">
<path d="M19 4H17V3C17 2.73478 16.8946 2.48043 16.7071 2.29289C16.5196 2.10536 16.2652 2 16 2C15.7348 2 15.4804 2.10536 15.2929 2.29289C15.1054 2.48043 15 2.73478 15 3V4H9V3C9 2.73478 8.89464 2.48043 8.70711 2.29289C8.51957 2.10536 8.26522 2 8 2C7.73478 2 7.48043 2.10536 7.29289 2.29289C7.10536 2.48043 7 2.73478 7 3V4H5C4.20435 4 3.44129 4.31607 2.87868 4.87868C2.31607 5.44129 2 6.20435 2 7V19C2 19.7956 2.31607 20.5587 2.87868 21.1213C3.44129 21.6839 4.20435 22 5 22H19C19.7956 22 20.5587 21.6839 21.1213 21.1213C21.6839 20.5587 22 19.7956 22 19V7C22 6.20435 21.6839 5.44129 21.1213 4.87868C20.5587 4.31607 19.7956 4 19 4ZM20 19C20 19.2652 19.8946 19.5196 19.7071 19.7071C19.5196 19.8946 19.2652 20 19 20H5C4.73478 20 4.48043 19.8946 4.29289 19.7071C4.10536 19.5196 4 19.2652 4 19V12H20V19ZM20 10H4V7C4 6.73478 4.10536 6.48043 4.29289 6.29289C4.48043 6.10536 4.73478 6 5 6H7V7C7 7.26522 7.10536 7.51957 7.29289 7.70711C7.48043 7.89464 7.73478 8 8 8C8.26522 8 8.51957 7.89464 8.70711 7.70711C8.89464 7.51957 9 7.26522 9 7V6H15V7C15 7.26522 15.1054 7.51957 15.2929 7.70711C15.4804 7.89464 15.7348 8 16 8C16.2652 8 16.5196 7.89464 16.7071 7.70711C16.8946 7.51957 17 7.26522 17 7V6H19C19.2652 6 19.5196 6.10536 19.7071 6.29289C19.8946 6.48043 20 6.73478 20 7V10Z"></path>
</symbol>
<symbol id="icon-u_calender-1" viewBox="0 0 32 32">
<path d="M25.333 5.333h-2.667v-1.333c0-0.354-0.141-0.693-0.391-0.943s-0.589-0.391-0.943-0.391c-0.354 0-0.693 0.14-0.943 0.391s-0.391 0.589-0.391 0.943v1.333h-8v-1.333c0-0.354-0.14-0.693-0.391-0.943s-0.589-0.391-0.943-0.391c-0.354 0-0.693 0.14-0.943 0.391s-0.391 0.589-0.391 0.943v1.333h-2.667c-1.061 0-2.078 0.421-2.828 1.172s-1.172 1.768-1.172 2.828v16c0 1.061 0.421 2.078 1.172 2.828s1.768 1.172 2.828 1.172h18.667c1.061 0 2.078-0.421 2.828-1.172s1.172-1.768 1.172-2.828v-16c0-1.061-0.421-2.078-1.172-2.828s-1.768-1.172-2.828-1.172zM26.667 25.333c0 0.354-0.141 0.693-0.391 0.943s-0.589 0.391-0.943 0.391h-18.667c-0.354 0-0.693-0.141-0.943-0.391s-0.391-0.589-0.391-0.943v-9.333h21.333v9.333zM26.667 13.333h-21.333v-4c0-0.354 0.14-0.693 0.391-0.943s0.589-0.391 0.943-0.391h2.667v1.333c0 0.354 0.14 0.693 0.391 0.943s0.589 0.391 0.943 0.391c0.354 0 0.693-0.14 0.943-0.391s0.391-0.589 0.391-0.943v-1.333h8v1.333c0 0.354 0.141 0.693 0.391 0.943s0.589 0.391 0.943 0.391c0.354 0 0.693-0.14 0.943-0.391s0.391-0.589 0.391-0.943v-1.333h2.667c0.354 0 0.693 0.14 0.943 0.391s0.391 0.589 0.391 0.943v4z"></path>
</symbol>
<symbol id="icon-instagram" viewBox="0 0 32 32">
<path d="M28.718 10.756c-0.016-1.074-0.215-2.14-0.596-3.145-0.667-1.716-2.024-3.073-3.743-3.737-0.994-0.373-2.044-0.573-3.108-0.596-1.368-0.061-1.801-0.078-5.273-0.078s-3.916 0-5.274 0.078c-1.062 0.023-2.113 0.223-3.106 0.596-1.719 0.664-3.078 2.021-3.743 3.737-0.374 0.992-0.576 2.041-0.596 3.101-0.061 1.367-0.080 1.8-0.080 5.265s0 3.909 0.080 5.265c0.021 1.062 0.222 2.109 0.596 3.104 0.667 1.714 2.024 3.071 3.744 3.735 0.989 0.386 2.040 0.605 3.106 0.639 1.369 0.061 1.803 0.080 5.274 0.080s3.916 0 5.274-0.080c1.062-0.021 2.112-0.221 3.108-0.595 1.719-0.666 3.076-2.022 3.743-3.737 0.374-0.994 0.574-2.041 0.596-3.104 0.061-1.365 0.080-1.798 0.080-5.265-0.003-3.466-0.003-3.906-0.082-5.264zM15.99 22.531c-3.631 0-6.572-2.936-6.572-6.561s2.941-6.561 6.572-6.561c3.628 0 6.572 2.936 6.572 6.561s-2.944 6.561-6.572 6.561zM22.824 10.696c-0.849 0-1.532-0.684-1.532-1.53s0.684-1.53 1.532-1.53c0.846 0 1.531 0.684 1.531 1.53s-0.685 1.53-1.531 1.53z"></path>
<path d="M15.992 19.976c2.211 0 4.004-1.793 4.004-4.004s-1.793-4.004-4.004-4.004c-2.211 0-4.004 1.793-4.004 4.004s1.793 4.004 4.004 4.004z"></path>
</symbol>
<symbol id="icon-left" viewBox="0 0 32 32">
<path stroke-linejoin="round" stroke-linecap="round" stroke-miterlimit="4" stroke-width="1.3333" d="M20 24l-8-8 8-8"></path>
</symbol>
<symbol id="icon-right" viewBox="0 0 32 32">
<path stroke-linejoin="round" stroke-linecap="round" stroke-miterlimit="4" stroke-width="1.3333" d="M12 24l8-8-8-8"></path>
</symbol>
<symbol id="icon-close" viewBox="0 0 32 32">
<path stroke-linejoin="round" stroke-linecap="round" stroke-miterlimit="4" stroke-width="1.7333" d="M24 8l-16 16"></path>
<path stroke-linejoin="round" stroke-linecap="round" stroke-miterlimit="4" stroke-width="1.7333" d="M8 8l16 16"></path>
</symbol>
<symbol id="icon-close-" viewBox="0 0 32 32">
<path stroke-linejoin="round" stroke-linecap="round" stroke-miterlimit="4" stroke-width="2.0800" d="M24 8l-16 16"></path>
<path stroke-linejoin="round" stroke-linecap="round" stroke-miterlimit="4" stroke-width="2.0800" d="M8 8l16 16"></path>
</symbol>
<symbol id="icon-youtube" viewBox="0 0 32 32">
<path d="M24.24 6c-1.36-0.080-4.16-0.16-8.4-0.16h-0.56c-4.080 0-6.8 0.080-8.16 0.24-1.84 0.16-3.12 0.64-3.84 1.28-0.64 0.56-1.12 1.6-1.28 2.96-0.080 0.88-0.16 2.72-0.16 5.52v0.4c0 2.64 0.080 4.48 0.24 5.36 0.24 1.28 0.64 2.24 1.44 2.8 0.8 0.64 2.16 1.040 4.080 1.2 1.36 0.080 4.16 0.16 8.4 0.16h0.56c4.080 0 6.8-0.080 8.16-0.24 1.84-0.16 3.12-0.64 3.84-1.28 0.64-0.56 1.12-1.6 1.28-2.96 0.080-0.88 0.16-2.72 0.16-5.52v-0.4c0-2.64-0.080-4.48-0.24-5.36-0.24-1.28-0.64-2.24-1.44-2.8-0.8-0.64-2.16-1.040-4.080-1.2zM21.12 15.84l-8.8 5.28v-10.56l8.8 5.28z"></path>
</symbol>
<symbol id="icon-Vector" viewBox="0 0 56 32">
<path d="M25.397 21.134c0.341 0.344 0.746 0.616 1.193 0.803s0.926 0.282 1.41 0.282c0.484 0 0.963-0.096 1.41-0.282s0.852-0.459 1.193-0.803l16.794-16.83c0.341-0.344 0.746-0.616 1.193-0.803s0.926-0.282 1.41-0.282c0.484 0 0.963 0.096 1.41 0.282s0.852 0.459 1.193 0.803c0.683 0.687 1.066 1.616 1.066 2.585s-0.383 1.898-1.066 2.585l-16.83 16.83c-2.063 2.060-4.858 3.217-7.773 3.217s-5.711-1.157-7.773-3.217l-16.83-16.83c-0.677-0.683-1.059-1.605-1.063-2.567-0.003-0.483 0.090-0.961 0.272-1.408s0.451-0.853 0.791-1.196c0.341-0.344 0.746-0.616 1.193-0.803s0.926-0.282 1.41-0.282 0.963 0.096 1.41 0.282c0.447 0.186 0.852 0.459 1.193 0.803l16.793 16.83z"></path>
</symbol>
<symbol id="icon-message" viewBox="0 0 20 20">
<path d="M15 5H5C4.73478 5 4.48043 5.10536 4.29289 5.29289C4.10536 5.48043 4 5.73478 4 6C4 6.26522 4.10536 6.51957 4.29289 6.70711C4.48043 6.89464 4.73478 7 5 7H15C15.2652 7 15.5196 6.89464 15.7071 6.70711C15.8946 6.51957 16 6.26522 16 6C16 5.73478 15.8946 5.48043 15.7071 5.29289C15.5196 5.10536 15.2652 5 15 5ZM15 9H5C4.73478 9 4.48043 9.10536 4.29289 9.29289C4.10536 9.48043 4 9.73478 4 10C4 10.2652 4.10536 10.5196 4.29289 10.7071C4.48043 10.8946 4.73478 11 5 11H15C15.2652 11 15.5196 10.8946 15.7071 10.7071C15.8946 10.5196 16 10.2652 16 10C16 9.73478 15.8946 9.48043 15.7071 9.29289C15.5196 9.10536 15.2652 9 15 9ZM17 0H3C2.20435 0 1.44129 0.316071 0.87868 0.87868C0.316071 1.44129 0 2.20435 0 3V13C0 13.7956 0.316071 14.5587 0.87868 15.1213C1.44129 15.6839 2.20435 16 3 16H14.59L18.29 19.71C18.3834 19.8027 18.4943 19.876 18.6161 19.9258C18.7379 19.9755 18.8684 20.0008 19 20C19.1312 20.0034 19.2613 19.976 19.38 19.92C19.5626 19.845 19.7189 19.7176 19.8293 19.5539C19.9396 19.3901 19.999 19.1974 20 19V3C20 2.20435 19.6839 1.44129 19.1213 0.87868C18.5587 0.316071 17.7956 0 17 0ZM18 16.59L15.71 14.29C15.6166 14.1973 15.5057 14.124 15.3839 14.0742C15.2621 14.0245 15.1316 13.9992 15 14H3C2.73478 14 2.48043 13.8946 2.29289 13.7071C2.10536 13.5196 2 13.2652 2 13V3C2 2.73478 2.10536 2.48043 2.29289 2.29289C2.48043 2.10536 2.73478 2 3 2H17C17.2652 2 17.5196 2.10536 17.7071 2.29289C17.8946 2.48043 18 2.73478 18 3V16.59Z"></path>
</symbol>
<symbol id="icon-u_square-full" viewBox="0 0 32 32">
<path d="M28 2.667h-24c-0.354 0-0.693 0.14-0.943 0.391s-0.391 0.589-0.391 0.943v24c0 0.354 0.14 0.693 0.391 0.943s0.589 0.391 0.943 0.391h24c0.354 0 0.693-0.141 0.943-0.391s0.391-0.589 0.391-0.943v-24c0-0.354-0.141-0.693-0.391-0.943s-0.589-0.391-0.943-0.391zM26.667 26.667h-21.333v-21.333h21.333v21.333z"></path>
</symbol>
<symbol id="icon-u_credit-card" viewBox="0 0 32 32">
<path fill="#989ca0" style="fill: var(--color1, #989ca0)" d="M9.333 20h4c0.354 0 0.693-0.141 0.943-0.391s0.391-0.589 0.391-0.943c0-0.354-0.141-0.693-0.391-0.943s-0.589-0.391-0.943-0.391h-4c-0.354 0-0.693 0.141-0.943 0.391s-0.391 0.589-0.391 0.943c0 0.354 0.14 0.693 0.391 0.943s0.589 0.391 0.943 0.391zM25.333 6.667h-18.667c-1.061 0-2.078 0.421-2.828 1.172s-1.172 1.768-1.172 2.828v12c0 1.061 0.421 2.078 1.172 2.828s1.768 1.172 2.828 1.172h18.667c1.061 0 2.078-0.421 2.828-1.172s1.172-1.768 1.172-2.828v-12c0-1.061-0.421-2.078-1.172-2.828s-1.768-1.172-2.828-1.172zM26.667 22.667c0 0.354-0.141 0.693-0.391 0.943s-0.589 0.391-0.943 0.391h-18.667c-0.354 0-0.693-0.141-0.943-0.391s-0.391-0.589-0.391-0.943v-8h21.333v8zM26.667 12h-21.333v-1.333c0-0.354 0.14-0.693 0.391-0.943s0.589-0.391 0.943-0.391h18.667c0.354 0 0.693 0.14 0.943 0.391s0.391 0.589 0.391 0.943v1.333z"></path>
</symbol>
</defs>
</svg>





