<svg width="32" height="32" viewBox="0 0 32 32" fill="none" xmlns="http://www.w3.org/2000/svg">
<g clip-path="url(#clip0_2501_1503)">
<rect width="32" height="32" rx="8" fill="#1B87F0"/>
<path fill-rule="evenodd" clip-rule="evenodd" d="M18.947 8.22285C21.7906 11.0664 21.7906 15.6767 18.947 18.5202C16.1035 21.3637 11.4932 21.3637 8.64971 18.5202C5.80618 15.6767 5.80618 11.0664 8.64971 8.22285C11.4932 5.37932 16.1035 5.37932 18.947 8.22285ZM11.8003 9.07967C11.3121 9.30692 10.8546 9.62199 10.4517 10.0249C10.0489 10.4278 9.73378 10.8852 9.50654 11.3735L12.4401 12.1595C12.463 12.134 12.4867 12.1089 12.5112 12.0843C12.5358 12.0598 12.5608 12.0361 12.5864 12.0132L11.8003 9.07967ZM14.2698 11.613C14.172 11.5869 14.0726 11.569 13.9724 11.5595L13.1999 8.67642C14.3153 8.53505 15.4714 8.79062 16.4396 9.44312L14.2698 11.613ZM15.5808 13.0011C15.5472 12.8385 15.4912 12.6796 15.4128 12.5294L17.5091 10.4331C18.2813 11.4057 18.616 12.6118 18.5131 13.7868L15.5808 13.0011ZM14.8552 14.854C14.9359 14.7963 15.013 14.7312 15.0855 14.6587C15.158 14.5862 15.2231 14.5091 15.2809 14.4283L18.1647 15.201C17.9338 15.7526 17.5939 16.2692 17.145 16.7181C16.6961 17.1671 16.1794 17.507 15.6279 17.7378L14.8552 14.854ZM12.9563 14.9859C13.1065 15.0643 13.2654 15.1203 13.4279 15.1539L14.2136 18.0862C13.0387 18.1891 11.8326 17.8544 10.8599 17.0823L12.9563 14.9859ZM11.9863 13.5456C11.9959 13.6457 12.0137 13.7452 12.0398 13.8429L9.86999 16.0127C9.21749 15.0445 8.96192 13.8884 9.10329 12.7731L11.9863 13.5456ZM17.145 3.84651C17.6651 4.36662 17.7096 5.18227 17.2783 5.75289C16.4455 5.3726 15.5631 5.13599 14.6685 5.04308C14.6197 4.61695 14.7587 4.17337 15.0855 3.84651C15.6543 3.2778 16.5763 3.2778 17.145 3.84651ZM4.27334 14.6587C4.6002 14.3318 5.04379 14.1928 5.46992 14.2417C5.56284 15.1362 5.79944 16.0186 6.17973 16.8515C5.60912 17.2827 4.79346 17.2383 4.27334 16.7182C3.70464 16.1495 3.70464 15.2274 4.27334 14.6587ZM21.417 9.89158C21.7973 10.7245 22.0339 11.6069 22.1268 12.5014C22.553 12.5502 22.9965 12.4112 23.3234 12.0844C23.8921 11.5157 23.8921 10.5936 23.3234 10.0249C22.8033 9.50479 21.9876 9.46035 21.417 9.89158ZM12.9282 21.7C12.0337 21.6071 11.1513 21.3705 10.3184 20.9902C9.88719 21.5608 9.93162 22.3764 10.4517 22.8966C11.0204 23.4653 11.9425 23.4653 12.5112 22.8966C12.8381 22.5697 12.9771 22.1261 12.9282 21.7Z" fill="white"/>
<path fill-rule="evenodd" clip-rule="evenodd" d="M8.39268 4.36129C9.0775 5.04611 9.29109 6.02371 9.03346 6.89117L10.967 7.96536L8.39268 10.5397L7.31848 8.60615C6.45103 8.86377 5.47343 8.65017 4.78861 7.96536C3.79338 6.97012 3.79337 5.35653 4.78861 4.36129C5.78384 3.36606 7.39744 3.36606 8.39268 4.36129ZM7.36294 5.39103C7.78947 5.81756 7.78947 6.5091 7.36294 6.93563C6.93641 7.36216 6.24487 7.36216 5.81834 6.93563C5.39181 6.5091 5.39181 5.81756 5.81834 5.39103C6.24487 4.9645 6.93641 4.9645 7.36294 5.39103ZM19.2049 16.2032L16.6305 18.7776L20.5671 23.4298C18.2647 24.5577 14.7726 25.738 10.8106 25.8213C9.71726 25.8443 9.27788 27.0409 10.2964 27.4389C13.8262 28.8183 19.4382 29.3997 26.3158 26.0635C29.652 19.186 29.0706 13.5739 27.6912 10.0442C27.2931 9.02562 26.0965 9.46501 26.0735 10.5583C25.993 14.3908 24.8859 17.7837 23.7928 20.0853L19.2049 16.2032Z" fill="white"/>
</g>
<defs>
<clipPath id="clip0_2501_1503">
<rect width="32" height="32" rx="8" fill="white"/>
</clipPath>
</defs>
</svg>
